<?xml version="1.0" encoding="UTF-8" standalone="no"?>
<!-- This is a Stata 18.0 generated SVG file (http://www.stata.com) -->

<svg version="1.1" width="7.500in" height="4.500in" viewBox="0 0 5400 3240" xmlns="http://www.w3.org/2000/svg" xmlns:xlink="http://www.w3.org/1999/xlink">
	<desc>Stata Graph - Graph</desc>
	<rect x="0" y="0" width="5400" height="3240" style="fill:#FFFFFF;stroke:none"/>
	<rect x="0.00" y="0.00" width="5400.00" height="3240.00" style="fill:#FFFFFF"/>
	<rect x="3.24" y="3.24" width="5393.52" height="3233.52" style="fill:none;stroke:#FFFFFF;stroke-width:6.48"/>
	<rect x="524.98" y="309.82" width="4761.62" height="2456.83" style="fill:#FFFFFF"/>
	<rect x="528.22" y="313.06" width="4755.14" height="2450.35" style="fill:none;stroke:#FFFFFF;stroke-width:6.48"/>
	<line x1="524.98" y1="2766.66" x2="589.78" y2="2766.66" style="stroke:#F0F0F0;stroke-width:9.72"/>
	<line x1="622.18" y1="2766.66" x2="686.98" y2="2766.66" style="stroke:#F0F0F0;stroke-width:9.72"/>
	<line x1="719.38" y1="2766.66" x2="784.18" y2="2766.66" style="stroke:#F0F0F0;stroke-width:9.72"/>
	<line x1="816.58" y1="2766.66" x2="881.38" y2="2766.66" style="stroke:#F0F0F0;stroke-width:9.72"/>
	<line x1="913.78" y1="2766.66" x2="978.58" y2="2766.66" style="stroke:#F0F0F0;stroke-width:9.72"/>
	<line x1="1010.98" y1="2766.66" x2="1075.78" y2="2766.66" style="stroke:#F0F0F0;stroke-width:9.72"/>
	<line x1="1108.18" y1="2766.66" x2="1172.98" y2="2766.66" style="stroke:#F0F0F0;stroke-width:9.72"/>
	<line x1="1205.38" y1="2766.66" x2="1270.18" y2="2766.66" style="stroke:#F0F0F0;stroke-width:9.72"/>
	<line x1="1302.58" y1="2766.66" x2="1367.38" y2="2766.66" style="stroke:#F0F0F0;stroke-width:9.72"/>
	<line x1="1399.78" y1="2766.66" x2="1464.58" y2="2766.66" style="stroke:#F0F0F0;stroke-width:9.72"/>
	<line x1="1496.98" y1="2766.66" x2="1561.78" y2="2766.66" style="stroke:#F0F0F0;stroke-width:9.72"/>
	<line x1="1594.18" y1="2766.66" x2="1658.98" y2="2766.66" style="stroke:#F0F0F0;stroke-width:9.72"/>
	<line x1="1691.38" y1="2766.66" x2="1756.18" y2="2766.66" style="stroke:#F0F0F0;stroke-width:9.72"/>
	<line x1="1788.58" y1="2766.66" x2="1853.38" y2="2766.66" style="stroke:#F0F0F0;stroke-width:9.72"/>
	<line x1="1885.78" y1="2766.66" x2="1950.58" y2="2766.66" style="stroke:#F0F0F0;stroke-width:9.72"/>
	<line x1="1982.98" y1="2766.66" x2="2047.78" y2="2766.66" style="stroke:#F0F0F0;stroke-width:9.72"/>
	<line x1="2080.18" y1="2766.66" x2="2144.98" y2="2766.66" style="stroke:#F0F0F0;stroke-width:9.72"/>
	<line x1="2177.38" y1="2766.66" x2="2242.18" y2="2766.66" style="stroke:#F0F0F0;stroke-width:9.72"/>
	<line x1="2274.58" y1="2766.66" x2="2339.38" y2="2766.66" style="stroke:#F0F0F0;stroke-width:9.72"/>
	<line x1="2371.78" y1="2766.66" x2="2436.58" y2="2766.66" style="stroke:#F0F0F0;stroke-width:9.72"/>
	<line x1="2468.98" y1="2766.66" x2="2533.78" y2="2766.66" style="stroke:#F0F0F0;stroke-width:9.72"/>
	<line x1="2566.18" y1="2766.66" x2="2630.98" y2="2766.66" style="stroke:#F0F0F0;stroke-width:9.72"/>
	<line x1="2663.38" y1="2766.66" x2="2728.18" y2="2766.66" style="stroke:#F0F0F0;stroke-width:9.72"/>
	<line x1="2760.58" y1="2766.66" x2="2825.38" y2="2766.66" style="stroke:#F0F0F0;stroke-width:9.72"/>
	<line x1="2857.78" y1="2766.66" x2="2922.58" y2="2766.66" style="stroke:#F0F0F0;stroke-width:9.72"/>
	<line x1="2954.98" y1="2766.66" x2="3019.78" y2="2766.66" style="stroke:#F0F0F0;stroke-width:9.72"/>
	<line x1="3052.18" y1="2766.66" x2="3116.98" y2="2766.66" style="stroke:#F0F0F0;stroke-width:9.72"/>
	<line x1="3149.38" y1="2766.66" x2="3214.18" y2="2766.66" style="stroke:#F0F0F0;stroke-width:9.72"/>
	<line x1="3246.58" y1="2766.66" x2="3311.38" y2="2766.66" style="stroke:#F0F0F0;stroke-width:9.72"/>
	<line x1="3343.78" y1="2766.66" x2="3408.58" y2="2766.66" style="stroke:#F0F0F0;stroke-width:9.72"/>
	<line x1="3440.98" y1="2766.66" x2="3505.78" y2="2766.66" style="stroke:#F0F0F0;stroke-width:9.72"/>
	<line x1="3538.18" y1="2766.66" x2="3602.98" y2="2766.66" style="stroke:#F0F0F0;stroke-width:9.72"/>
	<line x1="3635.38" y1="2766.66" x2="3700.18" y2="2766.66" style="stroke:#F0F0F0;stroke-width:9.72"/>
	<line x1="3732.58" y1="2766.66" x2="3797.38" y2="2766.66" style="stroke:#F0F0F0;stroke-width:9.72"/>
	<line x1="3829.78" y1="2766.66" x2="3894.58" y2="2766.66" style="stroke:#F0F0F0;stroke-width:9.72"/>
	<line x1="3926.98" y1="2766.66" x2="3991.78" y2="2766.66" style="stroke:#F0F0F0;stroke-width:9.72"/>
	<line x1="4024.18" y1="2766.66" x2="4088.98" y2="2766.66" style="stroke:#F0F0F0;stroke-width:9.72"/>
	<line x1="4121.38" y1="2766.66" x2="4186.18" y2="2766.66" style="stroke:#F0F0F0;stroke-width:9.72"/>
	<line x1="4218.58" y1="2766.66" x2="4283.38" y2="2766.66" style="stroke:#F0F0F0;stroke-width:9.72"/>
	<line x1="4315.78" y1="2766.66" x2="4380.58" y2="2766.66" style="stroke:#F0F0F0;stroke-width:9.72"/>
	<line x1="4412.98" y1="2766.66" x2="4477.78" y2="2766.66" style="stroke:#F0F0F0;stroke-width:9.72"/>
	<line x1="4510.18" y1="2766.66" x2="4574.98" y2="2766.66" style="stroke:#F0F0F0;stroke-width:9.72"/>
	<line x1="4607.38" y1="2766.66" x2="4672.18" y2="2766.66" style="stroke:#F0F0F0;stroke-width:9.72"/>
	<line x1="4704.58" y1="2766.66" x2="4769.38" y2="2766.66" style="stroke:#F0F0F0;stroke-width:9.72"/>
	<line x1="4801.78" y1="2766.66" x2="4866.58" y2="2766.66" style="stroke:#F0F0F0;stroke-width:9.72"/>
	<line x1="4898.98" y1="2766.66" x2="4963.78" y2="2766.66" style="stroke:#F0F0F0;stroke-width:9.72"/>
	<line x1="4996.18" y1="2766.66" x2="5060.98" y2="2766.66" style="stroke:#F0F0F0;stroke-width:9.72"/>
	<line x1="5093.38" y1="2766.66" x2="5158.18" y2="2766.66" style="stroke:#F0F0F0;stroke-width:9.72"/>
	<line x1="5190.58" y1="2766.66" x2="5255.38" y2="2766.66" style="stroke:#F0F0F0;stroke-width:9.72"/>
	<line x1="524.98" y1="2289.43" x2="589.78" y2="2289.43" style="stroke:#F0F0F0;stroke-width:9.72"/>
	<line x1="622.18" y1="2289.43" x2="686.98" y2="2289.43" style="stroke:#F0F0F0;stroke-width:9.72"/>
	<line x1="719.38" y1="2289.43" x2="784.18" y2="2289.43" style="stroke:#F0F0F0;stroke-width:9.72"/>
	<line x1="816.58" y1="2289.43" x2="881.38" y2="2289.43" style="stroke:#F0F0F0;stroke-width:9.72"/>
	<line x1="913.78" y1="2289.43" x2="978.58" y2="2289.43" style="stroke:#F0F0F0;stroke-width:9.72"/>
	<line x1="1010.98" y1="2289.43" x2="1075.78" y2="2289.43" style="stroke:#F0F0F0;stroke-width:9.72"/>
	<line x1="1108.18" y1="2289.43" x2="1172.98" y2="2289.43" style="stroke:#F0F0F0;stroke-width:9.72"/>
	<line x1="1205.38" y1="2289.43" x2="1270.18" y2="2289.43" style="stroke:#F0F0F0;stroke-width:9.72"/>
	<line x1="1302.58" y1="2289.43" x2="1367.38" y2="2289.43" style="stroke:#F0F0F0;stroke-width:9.72"/>
	<line x1="1399.78" y1="2289.43" x2="1464.58" y2="2289.43" style="stroke:#F0F0F0;stroke-width:9.72"/>
	<line x1="1496.98" y1="2289.43" x2="1561.78" y2="2289.43" style="stroke:#F0F0F0;stroke-width:9.72"/>
	<line x1="1594.18" y1="2289.43" x2="1658.98" y2="2289.43" style="stroke:#F0F0F0;stroke-width:9.72"/>
	<line x1="1691.38" y1="2289.43" x2="1756.18" y2="2289.43" style="stroke:#F0F0F0;stroke-width:9.72"/>
	<line x1="1788.58" y1="2289.43" x2="1853.38" y2="2289.43" style="stroke:#F0F0F0;stroke-width:9.72"/>
	<line x1="1885.78" y1="2289.43" x2="1950.58" y2="2289.43" style="stroke:#F0F0F0;stroke-width:9.72"/>
	<line x1="1982.98" y1="2289.43" x2="2047.78" y2="2289.43" style="stroke:#F0F0F0;stroke-width:9.72"/>
	<line x1="2080.18" y1="2289.43" x2="2144.98" y2="2289.43" style="stroke:#F0F0F0;stroke-width:9.72"/>
	<line x1="2177.38" y1="2289.43" x2="2242.18" y2="2289.43" style="stroke:#F0F0F0;stroke-width:9.72"/>
	<line x1="2274.58" y1="2289.43" x2="2339.38" y2="2289.43" style="stroke:#F0F0F0;stroke-width:9.72"/>
	<line x1="2371.78" y1="2289.43" x2="2436.58" y2="2289.43" style="stroke:#F0F0F0;stroke-width:9.72"/>
	<line x1="2468.98" y1="2289.43" x2="2533.78" y2="2289.43" style="stroke:#F0F0F0;stroke-width:9.72"/>
	<line x1="2566.18" y1="2289.43" x2="2630.98" y2="2289.43" style="stroke:#F0F0F0;stroke-width:9.72"/>
	<line x1="2663.38" y1="2289.43" x2="2728.18" y2="2289.43" style="stroke:#F0F0F0;stroke-width:9.72"/>
	<line x1="2760.58" y1="2289.43" x2="2825.38" y2="2289.43" style="stroke:#F0F0F0;stroke-width:9.72"/>
	<line x1="2857.78" y1="2289.43" x2="2922.58" y2="2289.43" style="stroke:#F0F0F0;stroke-width:9.72"/>
	<line x1="2954.98" y1="2289.43" x2="3019.78" y2="2289.43" style="stroke:#F0F0F0;stroke-width:9.72"/>
	<line x1="3052.18" y1="2289.43" x2="3116.98" y2="2289.43" style="stroke:#F0F0F0;stroke-width:9.72"/>
	<line x1="3149.38" y1="2289.43" x2="3214.18" y2="2289.43" style="stroke:#F0F0F0;stroke-width:9.72"/>
	<line x1="3246.58" y1="2289.43" x2="3311.38" y2="2289.43" style="stroke:#F0F0F0;stroke-width:9.72"/>
	<line x1="3343.78" y1="2289.43" x2="3408.58" y2="2289.43" style="stroke:#F0F0F0;stroke-width:9.72"/>
	<line x1="3440.98" y1="2289.43" x2="3505.78" y2="2289.43" style="stroke:#F0F0F0;stroke-width:9.72"/>
	<line x1="3538.18" y1="2289.43" x2="3602.98" y2="2289.43" style="stroke:#F0F0F0;stroke-width:9.72"/>
	<line x1="3635.38" y1="2289.43" x2="3700.18" y2="2289.43" style="stroke:#F0F0F0;stroke-width:9.72"/>
	<line x1="3732.58" y1="2289.43" x2="3797.38" y2="2289.43" style="stroke:#F0F0F0;stroke-width:9.72"/>
	<line x1="3829.78" y1="2289.43" x2="3894.58" y2="2289.43" style="stroke:#F0F0F0;stroke-width:9.72"/>
	<line x1="3926.98" y1="2289.43" x2="3991.78" y2="2289.43" style="stroke:#F0F0F0;stroke-width:9.72"/>
	<line x1="4024.18" y1="2289.43" x2="4088.98" y2="2289.43" style="stroke:#F0F0F0;stroke-width:9.72"/>
	<line x1="4121.38" y1="2289.43" x2="4186.18" y2="2289.43" style="stroke:#F0F0F0;stroke-width:9.72"/>
	<line x1="4218.58" y1="2289.43" x2="4283.38" y2="2289.43" style="stroke:#F0F0F0;stroke-width:9.72"/>
	<line x1="4315.78" y1="2289.43" x2="4380.58" y2="2289.43" style="stroke:#F0F0F0;stroke-width:9.72"/>
	<line x1="4412.98" y1="2289.43" x2="4477.78" y2="2289.43" style="stroke:#F0F0F0;stroke-width:9.72"/>
	<line x1="4510.18" y1="2289.43" x2="4574.98" y2="2289.43" style="stroke:#F0F0F0;stroke-width:9.72"/>
	<line x1="4607.38" y1="2289.43" x2="4672.18" y2="2289.43" style="stroke:#F0F0F0;stroke-width:9.72"/>
	<line x1="4704.58" y1="2289.43" x2="4769.38" y2="2289.43" style="stroke:#F0F0F0;stroke-width:9.72"/>
	<line x1="4801.78" y1="2289.43" x2="4866.58" y2="2289.43" style="stroke:#F0F0F0;stroke-width:9.72"/>
	<line x1="4898.98" y1="2289.43" x2="4963.78" y2="2289.43" style="stroke:#F0F0F0;stroke-width:9.72"/>
	<line x1="4996.18" y1="2289.43" x2="5060.98" y2="2289.43" style="stroke:#F0F0F0;stroke-width:9.72"/>
	<line x1="5093.38" y1="2289.43" x2="5158.18" y2="2289.43" style="stroke:#F0F0F0;stroke-width:9.72"/>
	<line x1="5190.58" y1="2289.43" x2="5255.38" y2="2289.43" style="stroke:#F0F0F0;stroke-width:9.72"/>
	<line x1="524.98" y1="1812.38" x2="589.78" y2="1812.38" style="stroke:#F0F0F0;stroke-width:9.72"/>
	<line x1="622.18" y1="1812.38" x2="686.98" y2="1812.38" style="stroke:#F0F0F0;stroke-width:9.72"/>
	<line x1="719.38" y1="1812.38" x2="784.18" y2="1812.38" style="stroke:#F0F0F0;stroke-width:9.72"/>
	<line x1="816.58" y1="1812.38" x2="881.38" y2="1812.38" style="stroke:#F0F0F0;stroke-width:9.72"/>
	<line x1="913.78" y1="1812.38" x2="978.58" y2="1812.38" style="stroke:#F0F0F0;stroke-width:9.72"/>
	<line x1="1010.98" y1="1812.38" x2="1075.78" y2="1812.38" style="stroke:#F0F0F0;stroke-width:9.72"/>
	<line x1="1108.18" y1="1812.38" x2="1172.98" y2="1812.38" style="stroke:#F0F0F0;stroke-width:9.72"/>
	<line x1="1205.38" y1="1812.38" x2="1270.18" y2="1812.38" style="stroke:#F0F0F0;stroke-width:9.72"/>
	<line x1="1302.58" y1="1812.38" x2="1367.38" y2="1812.38" style="stroke:#F0F0F0;stroke-width:9.72"/>
	<line x1="1399.78" y1="1812.38" x2="1464.58" y2="1812.38" style="stroke:#F0F0F0;stroke-width:9.72"/>
	<line x1="1496.98" y1="1812.38" x2="1561.78" y2="1812.38" style="stroke:#F0F0F0;stroke-width:9.72"/>
	<line x1="1594.18" y1="1812.38" x2="1658.98" y2="1812.38" style="stroke:#F0F0F0;stroke-width:9.72"/>
	<line x1="1691.38" y1="1812.38" x2="1756.18" y2="1812.38" style="stroke:#F0F0F0;stroke-width:9.72"/>
	<line x1="1788.58" y1="1812.38" x2="1853.38" y2="1812.38" style="stroke:#F0F0F0;stroke-width:9.72"/>
	<line x1="1885.78" y1="1812.38" x2="1950.58" y2="1812.38" style="stroke:#F0F0F0;stroke-width:9.72"/>
	<line x1="1982.98" y1="1812.38" x2="2047.78" y2="1812.38" style="stroke:#F0F0F0;stroke-width:9.72"/>
	<line x1="2080.18" y1="1812.38" x2="2144.98" y2="1812.38" style="stroke:#F0F0F0;stroke-width:9.72"/>
	<line x1="2177.38" y1="1812.38" x2="2242.18" y2="1812.38" style="stroke:#F0F0F0;stroke-width:9.72"/>
	<line x1="2274.58" y1="1812.38" x2="2339.38" y2="1812.38" style="stroke:#F0F0F0;stroke-width:9.72"/>
	<line x1="2371.78" y1="1812.38" x2="2436.58" y2="1812.38" style="stroke:#F0F0F0;stroke-width:9.72"/>
	<line x1="2468.98" y1="1812.38" x2="2533.78" y2="1812.38" style="stroke:#F0F0F0;stroke-width:9.72"/>
	<line x1="2566.18" y1="1812.38" x2="2630.98" y2="1812.38" style="stroke:#F0F0F0;stroke-width:9.72"/>
	<line x1="2663.38" y1="1812.38" x2="2728.18" y2="1812.38" style="stroke:#F0F0F0;stroke-width:9.72"/>
	<line x1="2760.58" y1="1812.38" x2="2825.38" y2="1812.38" style="stroke:#F0F0F0;stroke-width:9.72"/>
	<line x1="2857.78" y1="1812.38" x2="2922.58" y2="1812.38" style="stroke:#F0F0F0;stroke-width:9.72"/>
	<line x1="2954.98" y1="1812.38" x2="3019.78" y2="1812.38" style="stroke:#F0F0F0;stroke-width:9.72"/>
	<line x1="3052.18" y1="1812.38" x2="3116.98" y2="1812.38" style="stroke:#F0F0F0;stroke-width:9.72"/>
	<line x1="3149.38" y1="1812.38" x2="3214.18" y2="1812.38" style="stroke:#F0F0F0;stroke-width:9.72"/>
	<line x1="3246.58" y1="1812.38" x2="3311.38" y2="1812.38" style="stroke:#F0F0F0;stroke-width:9.72"/>
	<line x1="3343.78" y1="1812.38" x2="3408.58" y2="1812.38" style="stroke:#F0F0F0;stroke-width:9.72"/>
	<line x1="3440.98" y1="1812.38" x2="3505.78" y2="1812.38" style="stroke:#F0F0F0;stroke-width:9.72"/>
	<line x1="3538.18" y1="1812.38" x2="3602.98" y2="1812.38" style="stroke:#F0F0F0;stroke-width:9.72"/>
	<line x1="3635.38" y1="1812.38" x2="3700.18" y2="1812.38" style="stroke:#F0F0F0;stroke-width:9.72"/>
	<line x1="3732.58" y1="1812.38" x2="3797.38" y2="1812.38" style="stroke:#F0F0F0;stroke-width:9.72"/>
	<line x1="3829.78" y1="1812.38" x2="3894.58" y2="1812.38" style="stroke:#F0F0F0;stroke-width:9.72"/>
	<line x1="3926.98" y1="1812.38" x2="3991.78" y2="1812.38" style="stroke:#F0F0F0;stroke-width:9.72"/>
	<line x1="4024.18" y1="1812.38" x2="4088.98" y2="1812.38" style="stroke:#F0F0F0;stroke-width:9.72"/>
	<line x1="4121.38" y1="1812.38" x2="4186.18" y2="1812.38" style="stroke:#F0F0F0;stroke-width:9.72"/>
	<line x1="4218.58" y1="1812.38" x2="4283.38" y2="1812.38" style="stroke:#F0F0F0;stroke-width:9.72"/>
	<line x1="4315.78" y1="1812.38" x2="4380.58" y2="1812.38" style="stroke:#F0F0F0;stroke-width:9.72"/>
	<line x1="4412.98" y1="1812.38" x2="4477.78" y2="1812.38" style="stroke:#F0F0F0;stroke-width:9.72"/>
	<line x1="4510.18" y1="1812.38" x2="4574.98" y2="1812.38" style="stroke:#F0F0F0;stroke-width:9.72"/>
	<line x1="4607.38" y1="1812.38" x2="4672.18" y2="1812.38" style="stroke:#F0F0F0;stroke-width:9.72"/>
	<line x1="4704.58" y1="1812.38" x2="4769.38" y2="1812.38" style="stroke:#F0F0F0;stroke-width:9.72"/>
	<line x1="4801.78" y1="1812.38" x2="4866.58" y2="1812.38" style="stroke:#F0F0F0;stroke-width:9.72"/>
	<line x1="4898.98" y1="1812.38" x2="4963.78" y2="1812.38" style="stroke:#F0F0F0;stroke-width:9.72"/>
	<line x1="4996.18" y1="1812.38" x2="5060.98" y2="1812.38" style="stroke:#F0F0F0;stroke-width:9.72"/>
	<line x1="5093.38" y1="1812.38" x2="5158.18" y2="1812.38" style="stroke:#F0F0F0;stroke-width:9.72"/>
	<line x1="5190.58" y1="1812.38" x2="5255.38" y2="1812.38" style="stroke:#F0F0F0;stroke-width:9.72"/>
	<line x1="524.98" y1="1335.32" x2="589.78" y2="1335.32" style="stroke:#F0F0F0;stroke-width:9.72"/>
	<line x1="622.18" y1="1335.32" x2="686.98" y2="1335.32" style="stroke:#F0F0F0;stroke-width:9.72"/>
	<line x1="719.38" y1="1335.32" x2="784.18" y2="1335.32" style="stroke:#F0F0F0;stroke-width:9.72"/>
	<line x1="816.58" y1="1335.32" x2="881.38" y2="1335.32" style="stroke:#F0F0F0;stroke-width:9.72"/>
	<line x1="913.78" y1="1335.32" x2="978.58" y2="1335.32" style="stroke:#F0F0F0;stroke-width:9.72"/>
	<line x1="1010.98" y1="1335.32" x2="1075.78" y2="1335.32" style="stroke:#F0F0F0;stroke-width:9.72"/>
	<line x1="1108.18" y1="1335.32" x2="1172.98" y2="1335.32" style="stroke:#F0F0F0;stroke-width:9.72"/>
	<line x1="1205.38" y1="1335.32" x2="1270.18" y2="1335.32" style="stroke:#F0F0F0;stroke-width:9.72"/>
	<line x1="1302.58" y1="1335.32" x2="1367.38" y2="1335.32" style="stroke:#F0F0F0;stroke-width:9.72"/>
	<line x1="1399.78" y1="1335.32" x2="1464.58" y2="1335.32" style="stroke:#F0F0F0;stroke-width:9.72"/>
	<line x1="1496.98" y1="1335.32" x2="1561.78" y2="1335.32" style="stroke:#F0F0F0;stroke-width:9.72"/>
	<line x1="1594.18" y1="1335.32" x2="1658.98" y2="1335.32" style="stroke:#F0F0F0;stroke-width:9.72"/>
	<line x1="1691.38" y1="1335.32" x2="1756.18" y2="1335.32" style="stroke:#F0F0F0;stroke-width:9.72"/>
	<line x1="1788.58" y1="1335.32" x2="1853.38" y2="1335.32" style="stroke:#F0F0F0;stroke-width:9.72"/>
	<line x1="1885.78" y1="1335.32" x2="1950.58" y2="1335.32" style="stroke:#F0F0F0;stroke-width:9.72"/>
	<line x1="1982.98" y1="1335.32" x2="2047.78" y2="1335.32" style="stroke:#F0F0F0;stroke-width:9.72"/>
	<line x1="2080.18" y1="1335.32" x2="2144.98" y2="1335.32" style="stroke:#F0F0F0;stroke-width:9.72"/>
	<line x1="2177.38" y1="1335.32" x2="2242.18" y2="1335.32" style="stroke:#F0F0F0;stroke-width:9.72"/>
	<line x1="2274.58" y1="1335.32" x2="2339.38" y2="1335.32" style="stroke:#F0F0F0;stroke-width:9.72"/>
	<line x1="2371.78" y1="1335.32" x2="2436.58" y2="1335.32" style="stroke:#F0F0F0;stroke-width:9.72"/>
	<line x1="2468.98" y1="1335.32" x2="2533.78" y2="1335.32" style="stroke:#F0F0F0;stroke-width:9.72"/>
	<line x1="2566.18" y1="1335.32" x2="2630.98" y2="1335.32" style="stroke:#F0F0F0;stroke-width:9.72"/>
	<line x1="2663.38" y1="1335.32" x2="2728.18" y2="1335.32" style="stroke:#F0F0F0;stroke-width:9.72"/>
	<line x1="2760.58" y1="1335.32" x2="2825.38" y2="1335.32" style="stroke:#F0F0F0;stroke-width:9.72"/>
	<line x1="2857.78" y1="1335.32" x2="2922.58" y2="1335.32" style="stroke:#F0F0F0;stroke-width:9.72"/>
	<line x1="2954.98" y1="1335.32" x2="3019.78" y2="1335.32" style="stroke:#F0F0F0;stroke-width:9.72"/>
	<line x1="3052.18" y1="1335.32" x2="3116.98" y2="1335.32" style="stroke:#F0F0F0;stroke-width:9.72"/>
	<line x1="3149.38" y1="1335.32" x2="3214.18" y2="1335.32" style="stroke:#F0F0F0;stroke-width:9.72"/>
	<line x1="3246.58" y1="1335.32" x2="3311.38" y2="1335.32" style="stroke:#F0F0F0;stroke-width:9.72"/>
	<line x1="3343.78" y1="1335.32" x2="3408.58" y2="1335.32" style="stroke:#F0F0F0;stroke-width:9.72"/>
	<line x1="3440.98" y1="1335.32" x2="3505.78" y2="1335.32" style="stroke:#F0F0F0;stroke-width:9.72"/>
	<line x1="3538.18" y1="1335.32" x2="3602.98" y2="1335.32" style="stroke:#F0F0F0;stroke-width:9.72"/>
	<line x1="3635.38" y1="1335.32" x2="3700.18" y2="1335.32" style="stroke:#F0F0F0;stroke-width:9.72"/>
	<line x1="3732.58" y1="1335.32" x2="3797.38" y2="1335.32" style="stroke:#F0F0F0;stroke-width:9.72"/>
	<line x1="3829.78" y1="1335.32" x2="3894.58" y2="1335.32" style="stroke:#F0F0F0;stroke-width:9.72"/>
	<line x1="3926.98" y1="1335.32" x2="3991.78" y2="1335.32" style="stroke:#F0F0F0;stroke-width:9.72"/>
	<line x1="4024.18" y1="1335.32" x2="4088.98" y2="1335.32" style="stroke:#F0F0F0;stroke-width:9.72"/>
	<line x1="4121.38" y1="1335.32" x2="4186.18" y2="1335.32" style="stroke:#F0F0F0;stroke-width:9.72"/>
	<line x1="4218.58" y1="1335.32" x2="4283.38" y2="1335.32" style="stroke:#F0F0F0;stroke-width:9.72"/>
	<line x1="4315.78" y1="1335.32" x2="4380.58" y2="1335.32" style="stroke:#F0F0F0;stroke-width:9.72"/>
	<line x1="4412.98" y1="1335.32" x2="4477.78" y2="1335.32" style="stroke:#F0F0F0;stroke-width:9.72"/>
	<line x1="4510.18" y1="1335.32" x2="4574.98" y2="1335.32" style="stroke:#F0F0F0;stroke-width:9.72"/>
	<line x1="4607.38" y1="1335.32" x2="4672.18" y2="1335.32" style="stroke:#F0F0F0;stroke-width:9.72"/>
	<line x1="4704.58" y1="1335.32" x2="4769.38" y2="1335.32" style="stroke:#F0F0F0;stroke-width:9.72"/>
	<line x1="4801.78" y1="1335.32" x2="4866.58" y2="1335.32" style="stroke:#F0F0F0;stroke-width:9.72"/>
	<line x1="4898.98" y1="1335.32" x2="4963.78" y2="1335.32" style="stroke:#F0F0F0;stroke-width:9.72"/>
	<line x1="4996.18" y1="1335.32" x2="5060.98" y2="1335.32" style="stroke:#F0F0F0;stroke-width:9.72"/>
	<line x1="5093.38" y1="1335.32" x2="5158.18" y2="1335.32" style="stroke:#F0F0F0;stroke-width:9.72"/>
	<line x1="5190.58" y1="1335.32" x2="5255.38" y2="1335.32" style="stroke:#F0F0F0;stroke-width:9.72"/>
	<line x1="524.98" y1="858.09" x2="589.78" y2="858.09" style="stroke:#F0F0F0;stroke-width:9.72"/>
	<line x1="622.18" y1="858.09" x2="686.98" y2="858.09" style="stroke:#F0F0F0;stroke-width:9.72"/>
	<line x1="719.38" y1="858.09" x2="784.18" y2="858.09" style="stroke:#F0F0F0;stroke-width:9.72"/>
	<line x1="816.58" y1="858.09" x2="881.38" y2="858.09" style="stroke:#F0F0F0;stroke-width:9.72"/>
	<line x1="913.78" y1="858.09" x2="978.58" y2="858.09" style="stroke:#F0F0F0;stroke-width:9.72"/>
	<line x1="1010.98" y1="858.09" x2="1075.78" y2="858.09" style="stroke:#F0F0F0;stroke-width:9.72"/>
	<line x1="1108.18" y1="858.09" x2="1172.98" y2="858.09" style="stroke:#F0F0F0;stroke-width:9.72"/>
	<line x1="1205.38" y1="858.09" x2="1270.18" y2="858.09" style="stroke:#F0F0F0;stroke-width:9.72"/>
	<line x1="1302.58" y1="858.09" x2="1367.38" y2="858.09" style="stroke:#F0F0F0;stroke-width:9.72"/>
	<line x1="1399.78" y1="858.09" x2="1464.58" y2="858.09" style="stroke:#F0F0F0;stroke-width:9.72"/>
	<line x1="1496.98" y1="858.09" x2="1561.78" y2="858.09" style="stroke:#F0F0F0;stroke-width:9.72"/>
	<line x1="1594.18" y1="858.09" x2="1658.98" y2="858.09" style="stroke:#F0F0F0;stroke-width:9.72"/>
	<line x1="1691.38" y1="858.09" x2="1756.18" y2="858.09" style="stroke:#F0F0F0;stroke-width:9.72"/>
	<line x1="1788.58" y1="858.09" x2="1853.38" y2="858.09" style="stroke:#F0F0F0;stroke-width:9.72"/>
	<line x1="1885.78" y1="858.09" x2="1950.58" y2="858.09" style="stroke:#F0F0F0;stroke-width:9.72"/>
	<line x1="1982.98" y1="858.09" x2="2047.78" y2="858.09" style="stroke:#F0F0F0;stroke-width:9.72"/>
	<line x1="2080.18" y1="858.09" x2="2144.98" y2="858.09" style="stroke:#F0F0F0;stroke-width:9.72"/>
	<line x1="2177.38" y1="858.09" x2="2242.18" y2="858.09" style="stroke:#F0F0F0;stroke-width:9.72"/>
	<line x1="2274.58" y1="858.09" x2="2339.38" y2="858.09" style="stroke:#F0F0F0;stroke-width:9.72"/>
	<line x1="2371.78" y1="858.09" x2="2436.58" y2="858.09" style="stroke:#F0F0F0;stroke-width:9.72"/>
	<line x1="2468.98" y1="858.09" x2="2533.78" y2="858.09" style="stroke:#F0F0F0;stroke-width:9.72"/>
	<line x1="2566.18" y1="858.09" x2="2630.98" y2="858.09" style="stroke:#F0F0F0;stroke-width:9.72"/>
	<line x1="2663.38" y1="858.09" x2="2728.18" y2="858.09" style="stroke:#F0F0F0;stroke-width:9.72"/>
	<line x1="2760.58" y1="858.09" x2="2825.38" y2="858.09" style="stroke:#F0F0F0;stroke-width:9.72"/>
	<line x1="2857.78" y1="858.09" x2="2922.58" y2="858.09" style="stroke:#F0F0F0;stroke-width:9.72"/>
	<line x1="2954.98" y1="858.09" x2="3019.78" y2="858.09" style="stroke:#F0F0F0;stroke-width:9.72"/>
	<line x1="3052.18" y1="858.09" x2="3116.98" y2="858.09" style="stroke:#F0F0F0;stroke-width:9.72"/>
	<line x1="3149.38" y1="858.09" x2="3214.18" y2="858.09" style="stroke:#F0F0F0;stroke-width:9.72"/>
	<line x1="3246.58" y1="858.09" x2="3311.38" y2="858.09" style="stroke:#F0F0F0;stroke-width:9.72"/>
	<line x1="3343.78" y1="858.09" x2="3408.58" y2="858.09" style="stroke:#F0F0F0;stroke-width:9.72"/>
	<line x1="3440.98" y1="858.09" x2="3505.78" y2="858.09" style="stroke:#F0F0F0;stroke-width:9.72"/>
	<line x1="3538.18" y1="858.09" x2="3602.98" y2="858.09" style="stroke:#F0F0F0;stroke-width:9.72"/>
	<line x1="3635.38" y1="858.09" x2="3700.18" y2="858.09" style="stroke:#F0F0F0;stroke-width:9.72"/>
	<line x1="3732.58" y1="858.09" x2="3797.38" y2="858.09" style="stroke:#F0F0F0;stroke-width:9.72"/>
	<line x1="3829.78" y1="858.09" x2="3894.58" y2="858.09" style="stroke:#F0F0F0;stroke-width:9.72"/>
	<line x1="3926.98" y1="858.09" x2="3991.78" y2="858.09" style="stroke:#F0F0F0;stroke-width:9.72"/>
	<line x1="4024.18" y1="858.09" x2="4088.98" y2="858.09" style="stroke:#F0F0F0;stroke-width:9.72"/>
	<line x1="4121.38" y1="858.09" x2="4186.18" y2="858.09" style="stroke:#F0F0F0;stroke-width:9.72"/>
	<line x1="4218.58" y1="858.09" x2="4283.38" y2="858.09" style="stroke:#F0F0F0;stroke-width:9.72"/>
	<line x1="4315.78" y1="858.09" x2="4380.58" y2="858.09" style="stroke:#F0F0F0;stroke-width:9.72"/>
	<line x1="4412.98" y1="858.09" x2="4477.78" y2="858.09" style="stroke:#F0F0F0;stroke-width:9.72"/>
	<line x1="4510.18" y1="858.09" x2="4574.98" y2="858.09" style="stroke:#F0F0F0;stroke-width:9.72"/>
	<line x1="4607.38" y1="858.09" x2="4672.18" y2="858.09" style="stroke:#F0F0F0;stroke-width:9.72"/>
	<line x1="4704.58" y1="858.09" x2="4769.38" y2="858.09" style="stroke:#F0F0F0;stroke-width:9.72"/>
	<line x1="4801.78" y1="858.09" x2="4866.58" y2="858.09" style="stroke:#F0F0F0;stroke-width:9.72"/>
	<line x1="4898.98" y1="858.09" x2="4963.78" y2="858.09" style="stroke:#F0F0F0;stroke-width:9.72"/>
	<line x1="4996.18" y1="858.09" x2="5060.98" y2="858.09" style="stroke:#F0F0F0;stroke-width:9.72"/>
	<line x1="5093.38" y1="858.09" x2="5158.18" y2="858.09" style="stroke:#F0F0F0;stroke-width:9.72"/>
	<line x1="5190.58" y1="858.09" x2="5255.38" y2="858.09" style="stroke:#F0F0F0;stroke-width:9.72"/>
	<line x1="524.98" y1="381.04" x2="589.78" y2="381.04" style="stroke:#F0F0F0;stroke-width:9.72"/>
	<line x1="622.18" y1="381.04" x2="686.98" y2="381.04" style="stroke:#F0F0F0;stroke-width:9.72"/>
	<line x1="719.38" y1="381.04" x2="784.18" y2="381.04" style="stroke:#F0F0F0;stroke-width:9.72"/>
	<line x1="816.58" y1="381.04" x2="881.38" y2="381.04" style="stroke:#F0F0F0;stroke-width:9.72"/>
	<line x1="913.78" y1="381.04" x2="978.58" y2="381.04" style="stroke:#F0F0F0;stroke-width:9.72"/>
	<line x1="1010.98" y1="381.04" x2="1075.78" y2="381.04" style="stroke:#F0F0F0;stroke-width:9.72"/>
	<line x1="1108.18" y1="381.04" x2="1172.98" y2="381.04" style="stroke:#F0F0F0;stroke-width:9.72"/>
	<line x1="1205.38" y1="381.04" x2="1270.18" y2="381.04" style="stroke:#F0F0F0;stroke-width:9.72"/>
	<line x1="1302.58" y1="381.04" x2="1367.38" y2="381.04" style="stroke:#F0F0F0;stroke-width:9.72"/>
	<line x1="1399.78" y1="381.04" x2="1464.58" y2="381.04" style="stroke:#F0F0F0;stroke-width:9.72"/>
	<line x1="1496.98" y1="381.04" x2="1561.78" y2="381.04" style="stroke:#F0F0F0;stroke-width:9.72"/>
	<line x1="1594.18" y1="381.04" x2="1658.98" y2="381.04" style="stroke:#F0F0F0;stroke-width:9.72"/>
	<line x1="1691.38" y1="381.04" x2="1756.18" y2="381.04" style="stroke:#F0F0F0;stroke-width:9.72"/>
	<line x1="1788.58" y1="381.04" x2="1853.38" y2="381.04" style="stroke:#F0F0F0;stroke-width:9.72"/>
	<line x1="1885.78" y1="381.04" x2="1950.58" y2="381.04" style="stroke:#F0F0F0;stroke-width:9.72"/>
	<line x1="1982.98" y1="381.04" x2="2047.78" y2="381.04" style="stroke:#F0F0F0;stroke-width:9.72"/>
	<line x1="2080.18" y1="381.04" x2="2144.98" y2="381.04" style="stroke:#F0F0F0;stroke-width:9.72"/>
	<line x1="2177.38" y1="381.04" x2="2242.18" y2="381.04" style="stroke:#F0F0F0;stroke-width:9.72"/>
	<line x1="2274.58" y1="381.04" x2="2339.38" y2="381.04" style="stroke:#F0F0F0;stroke-width:9.72"/>
	<line x1="2371.78" y1="381.04" x2="2436.58" y2="381.04" style="stroke:#F0F0F0;stroke-width:9.72"/>
	<line x1="2468.98" y1="381.04" x2="2533.78" y2="381.04" style="stroke:#F0F0F0;stroke-width:9.72"/>
	<line x1="2566.18" y1="381.04" x2="2630.98" y2="381.04" style="stroke:#F0F0F0;stroke-width:9.72"/>
	<line x1="2663.38" y1="381.04" x2="2728.18" y2="381.04" style="stroke:#F0F0F0;stroke-width:9.72"/>
	<line x1="2760.58" y1="381.04" x2="2825.38" y2="381.04" style="stroke:#F0F0F0;stroke-width:9.72"/>
	<line x1="2857.78" y1="381.04" x2="2922.58" y2="381.04" style="stroke:#F0F0F0;stroke-width:9.72"/>
	<line x1="2954.98" y1="381.04" x2="3019.78" y2="381.04" style="stroke:#F0F0F0;stroke-width:9.72"/>
	<line x1="3052.18" y1="381.04" x2="3116.98" y2="381.04" style="stroke:#F0F0F0;stroke-width:9.72"/>
	<line x1="3149.38" y1="381.04" x2="3214.18" y2="381.04" style="stroke:#F0F0F0;stroke-width:9.72"/>
	<line x1="3246.58" y1="381.04" x2="3311.38" y2="381.04" style="stroke:#F0F0F0;stroke-width:9.72"/>
	<line x1="3343.78" y1="381.04" x2="3408.58" y2="381.04" style="stroke:#F0F0F0;stroke-width:9.72"/>
	<line x1="3440.98" y1="381.04" x2="3505.78" y2="381.04" style="stroke:#F0F0F0;stroke-width:9.72"/>
	<line x1="3538.18" y1="381.04" x2="3602.98" y2="381.04" style="stroke:#F0F0F0;stroke-width:9.72"/>
	<line x1="3635.38" y1="381.04" x2="3700.18" y2="381.04" style="stroke:#F0F0F0;stroke-width:9.72"/>
	<line x1="3732.58" y1="381.04" x2="3797.38" y2="381.04" style="stroke:#F0F0F0;stroke-width:9.72"/>
	<line x1="3829.78" y1="381.04" x2="3894.58" y2="381.04" style="stroke:#F0F0F0;stroke-width:9.72"/>
	<line x1="3926.98" y1="381.04" x2="3991.78" y2="381.04" style="stroke:#F0F0F0;stroke-width:9.72"/>
	<line x1="4024.18" y1="381.04" x2="4088.98" y2="381.04" style="stroke:#F0F0F0;stroke-width:9.72"/>
	<line x1="4121.38" y1="381.04" x2="4186.18" y2="381.04" style="stroke:#F0F0F0;stroke-width:9.72"/>
	<line x1="4218.58" y1="381.04" x2="4283.38" y2="381.04" style="stroke:#F0F0F0;stroke-width:9.72"/>
	<line x1="4315.78" y1="381.04" x2="4380.58" y2="381.04" style="stroke:#F0F0F0;stroke-width:9.72"/>
	<line x1="4412.98" y1="381.04" x2="4477.78" y2="381.04" style="stroke:#F0F0F0;stroke-width:9.72"/>
	<line x1="4510.18" y1="381.04" x2="4574.98" y2="381.04" style="stroke:#F0F0F0;stroke-width:9.72"/>
	<line x1="4607.38" y1="381.04" x2="4672.18" y2="381.04" style="stroke:#F0F0F0;stroke-width:9.72"/>
	<line x1="4704.58" y1="381.04" x2="4769.38" y2="381.04" style="stroke:#F0F0F0;stroke-width:9.72"/>
	<line x1="4801.78" y1="381.04" x2="4866.58" y2="381.04" style="stroke:#F0F0F0;stroke-width:9.72"/>
	<line x1="4898.98" y1="381.04" x2="4963.78" y2="381.04" style="stroke:#F0F0F0;stroke-width:9.72"/>
	<line x1="4996.18" y1="381.04" x2="5060.98" y2="381.04" style="stroke:#F0F0F0;stroke-width:9.72"/>
	<line x1="5093.38" y1="381.04" x2="5158.18" y2="381.04" style="stroke:#F0F0F0;stroke-width:9.72"/>
	<line x1="5190.58" y1="381.04" x2="5255.38" y2="381.04" style="stroke:#F0F0F0;stroke-width:9.72"/>
	<line x1="835.48" y1="2766.66" x2="835.48" y2="2701.86" style="stroke:#F0F0F0;stroke-width:9.72"/>
	<line x1="835.48" y1="2669.46" x2="835.48" y2="2604.66" style="stroke:#F0F0F0;stroke-width:9.72"/>
	<line x1="835.48" y1="2572.26" x2="835.48" y2="2507.46" style="stroke:#F0F0F0;stroke-width:9.72"/>
	<line x1="835.48" y1="2475.06" x2="835.48" y2="2410.26" style="stroke:#F0F0F0;stroke-width:9.72"/>
	<line x1="835.48" y1="2377.86" x2="835.48" y2="2313.06" style="stroke:#F0F0F0;stroke-width:9.72"/>
	<line x1="835.48" y1="2280.66" x2="835.48" y2="2215.86" style="stroke:#F0F0F0;stroke-width:9.72"/>
	<line x1="835.48" y1="2183.46" x2="835.48" y2="2118.66" style="stroke:#F0F0F0;stroke-width:9.72"/>
	<line x1="835.48" y1="2086.26" x2="835.48" y2="2021.46" style="stroke:#F0F0F0;stroke-width:9.72"/>
	<line x1="835.48" y1="1989.06" x2="835.48" y2="1924.26" style="stroke:#F0F0F0;stroke-width:9.72"/>
	<line x1="835.48" y1="1891.86" x2="835.48" y2="1827.06" style="stroke:#F0F0F0;stroke-width:9.72"/>
	<line x1="835.48" y1="1794.66" x2="835.48" y2="1729.86" style="stroke:#F0F0F0;stroke-width:9.72"/>
	<line x1="835.48" y1="1697.46" x2="835.48" y2="1632.66" style="stroke:#F0F0F0;stroke-width:9.72"/>
	<line x1="835.48" y1="1600.26" x2="835.48" y2="1535.46" style="stroke:#F0F0F0;stroke-width:9.72"/>
	<line x1="835.48" y1="1503.06" x2="835.48" y2="1438.26" style="stroke:#F0F0F0;stroke-width:9.72"/>
	<line x1="835.48" y1="1405.86" x2="835.48" y2="1341.06" style="stroke:#F0F0F0;stroke-width:9.72"/>
	<line x1="835.48" y1="1308.66" x2="835.48" y2="1243.86" style="stroke:#F0F0F0;stroke-width:9.72"/>
	<line x1="835.48" y1="1211.46" x2="835.48" y2="1146.66" style="stroke:#F0F0F0;stroke-width:9.72"/>
	<line x1="835.48" y1="1114.26" x2="835.48" y2="1049.46" style="stroke:#F0F0F0;stroke-width:9.72"/>
	<line x1="835.48" y1="1017.06" x2="835.48" y2="952.26" style="stroke:#F0F0F0;stroke-width:9.72"/>
	<line x1="835.48" y1="919.86" x2="835.48" y2="855.06" style="stroke:#F0F0F0;stroke-width:9.72"/>
	<line x1="835.48" y1="822.66" x2="835.48" y2="757.86" style="stroke:#F0F0F0;stroke-width:9.72"/>
	<line x1="835.48" y1="725.46" x2="835.48" y2="660.66" style="stroke:#F0F0F0;stroke-width:9.72"/>
	<line x1="835.48" y1="628.26" x2="835.48" y2="563.46" style="stroke:#F0F0F0;stroke-width:9.72"/>
	<line x1="835.48" y1="531.06" x2="835.48" y2="466.26" style="stroke:#F0F0F0;stroke-width:9.72"/>
	<line x1="835.48" y1="433.86" x2="835.48" y2="369.06" style="stroke:#F0F0F0;stroke-width:9.72"/>
	<line x1="835.48" y1="336.66" x2="835.48" y2="309.82" style="stroke:#F0F0F0;stroke-width:9.72"/>
	<line x1="1930.50" y1="2766.66" x2="1930.50" y2="2701.86" style="stroke:#F0F0F0;stroke-width:9.72"/>
	<line x1="1930.50" y1="2669.46" x2="1930.50" y2="2604.66" style="stroke:#F0F0F0;stroke-width:9.72"/>
	<line x1="1930.50" y1="2572.26" x2="1930.50" y2="2507.46" style="stroke:#F0F0F0;stroke-width:9.72"/>
	<line x1="1930.50" y1="2475.06" x2="1930.50" y2="2410.26" style="stroke:#F0F0F0;stroke-width:9.72"/>
	<line x1="1930.50" y1="2377.86" x2="1930.50" y2="2313.06" style="stroke:#F0F0F0;stroke-width:9.72"/>
	<line x1="1930.50" y1="2280.66" x2="1930.50" y2="2215.86" style="stroke:#F0F0F0;stroke-width:9.72"/>
	<line x1="1930.50" y1="2183.46" x2="1930.50" y2="2118.66" style="stroke:#F0F0F0;stroke-width:9.72"/>
	<line x1="1930.50" y1="2086.26" x2="1930.50" y2="2021.46" style="stroke:#F0F0F0;stroke-width:9.72"/>
	<line x1="1930.50" y1="1989.06" x2="1930.50" y2="1924.26" style="stroke:#F0F0F0;stroke-width:9.72"/>
	<line x1="1930.50" y1="1891.86" x2="1930.50" y2="1827.06" style="stroke:#F0F0F0;stroke-width:9.72"/>
	<line x1="1930.50" y1="1794.66" x2="1930.50" y2="1729.86" style="stroke:#F0F0F0;stroke-width:9.72"/>
	<line x1="1930.50" y1="1697.46" x2="1930.50" y2="1632.66" style="stroke:#F0F0F0;stroke-width:9.72"/>
	<line x1="1930.50" y1="1600.26" x2="1930.50" y2="1535.46" style="stroke:#F0F0F0;stroke-width:9.72"/>
	<line x1="1930.50" y1="1503.06" x2="1930.50" y2="1438.26" style="stroke:#F0F0F0;stroke-width:9.72"/>
	<line x1="1930.50" y1="1405.86" x2="1930.50" y2="1341.06" style="stroke:#F0F0F0;stroke-width:9.72"/>
	<line x1="1930.50" y1="1308.66" x2="1930.50" y2="1243.86" style="stroke:#F0F0F0;stroke-width:9.72"/>
	<line x1="1930.50" y1="1211.46" x2="1930.50" y2="1146.66" style="stroke:#F0F0F0;stroke-width:9.72"/>
	<line x1="1930.50" y1="1114.26" x2="1930.50" y2="1049.46" style="stroke:#F0F0F0;stroke-width:9.72"/>
	<line x1="1930.50" y1="1017.06" x2="1930.50" y2="952.26" style="stroke:#F0F0F0;stroke-width:9.72"/>
	<line x1="1930.50" y1="919.86" x2="1930.50" y2="855.06" style="stroke:#F0F0F0;stroke-width:9.72"/>
	<line x1="1930.50" y1="822.66" x2="1930.50" y2="757.86" style="stroke:#F0F0F0;stroke-width:9.72"/>
	<line x1="1930.50" y1="725.46" x2="1930.50" y2="660.66" style="stroke:#F0F0F0;stroke-width:9.72"/>
	<line x1="1930.50" y1="628.26" x2="1930.50" y2="563.46" style="stroke:#F0F0F0;stroke-width:9.72"/>
	<line x1="1930.50" y1="531.06" x2="1930.50" y2="466.26" style="stroke:#F0F0F0;stroke-width:9.72"/>
	<line x1="1930.50" y1="433.86" x2="1930.50" y2="369.06" style="stroke:#F0F0F0;stroke-width:9.72"/>
	<line x1="1930.50" y1="336.66" x2="1930.50" y2="309.82" style="stroke:#F0F0F0;stroke-width:9.72"/>
	<line x1="3025.35" y1="2766.66" x2="3025.35" y2="2701.86" style="stroke:#F0F0F0;stroke-width:9.72"/>
	<line x1="3025.35" y1="2669.46" x2="3025.35" y2="2604.66" style="stroke:#F0F0F0;stroke-width:9.72"/>
	<line x1="3025.35" y1="2572.26" x2="3025.35" y2="2507.46" style="stroke:#F0F0F0;stroke-width:9.72"/>
	<line x1="3025.35" y1="2475.06" x2="3025.35" y2="2410.26" style="stroke:#F0F0F0;stroke-width:9.72"/>
	<line x1="3025.35" y1="2377.86" x2="3025.35" y2="2313.06" style="stroke:#F0F0F0;stroke-width:9.72"/>
	<line x1="3025.35" y1="2280.66" x2="3025.35" y2="2215.86" style="stroke:#F0F0F0;stroke-width:9.72"/>
	<line x1="3025.35" y1="2183.46" x2="3025.35" y2="2118.66" style="stroke:#F0F0F0;stroke-width:9.72"/>
	<line x1="3025.35" y1="2086.26" x2="3025.35" y2="2021.46" style="stroke:#F0F0F0;stroke-width:9.72"/>
	<line x1="3025.35" y1="1989.06" x2="3025.35" y2="1924.26" style="stroke:#F0F0F0;stroke-width:9.72"/>
	<line x1="3025.35" y1="1891.86" x2="3025.35" y2="1827.06" style="stroke:#F0F0F0;stroke-width:9.72"/>
	<line x1="3025.35" y1="1794.66" x2="3025.35" y2="1729.86" style="stroke:#F0F0F0;stroke-width:9.72"/>
	<line x1="3025.35" y1="1697.46" x2="3025.35" y2="1632.66" style="stroke:#F0F0F0;stroke-width:9.72"/>
	<line x1="3025.35" y1="1600.26" x2="3025.35" y2="1535.46" style="stroke:#F0F0F0;stroke-width:9.72"/>
	<line x1="3025.35" y1="1503.06" x2="3025.35" y2="1438.26" style="stroke:#F0F0F0;stroke-width:9.72"/>
	<line x1="3025.35" y1="1405.86" x2="3025.35" y2="1341.06" style="stroke:#F0F0F0;stroke-width:9.72"/>
	<line x1="3025.35" y1="1308.66" x2="3025.35" y2="1243.86" style="stroke:#F0F0F0;stroke-width:9.72"/>
	<line x1="3025.35" y1="1211.46" x2="3025.35" y2="1146.66" style="stroke:#F0F0F0;stroke-width:9.72"/>
	<line x1="3025.35" y1="1114.26" x2="3025.35" y2="1049.46" style="stroke:#F0F0F0;stroke-width:9.72"/>
	<line x1="3025.35" y1="1017.06" x2="3025.35" y2="952.26" style="stroke:#F0F0F0;stroke-width:9.72"/>
	<line x1="3025.35" y1="919.86" x2="3025.35" y2="855.06" style="stroke:#F0F0F0;stroke-width:9.72"/>
	<line x1="3025.35" y1="822.66" x2="3025.35" y2="757.86" style="stroke:#F0F0F0;stroke-width:9.72"/>
	<line x1="3025.35" y1="725.46" x2="3025.35" y2="660.66" style="stroke:#F0F0F0;stroke-width:9.72"/>
	<line x1="3025.35" y1="628.26" x2="3025.35" y2="563.46" style="stroke:#F0F0F0;stroke-width:9.72"/>
	<line x1="3025.35" y1="531.06" x2="3025.35" y2="466.26" style="stroke:#F0F0F0;stroke-width:9.72"/>
	<line x1="3025.35" y1="433.86" x2="3025.35" y2="369.06" style="stroke:#F0F0F0;stroke-width:9.72"/>
	<line x1="3025.35" y1="336.66" x2="3025.35" y2="309.82" style="stroke:#F0F0F0;stroke-width:9.72"/>
	<line x1="4120.37" y1="2766.66" x2="4120.37" y2="2701.86" style="stroke:#F0F0F0;stroke-width:9.72"/>
	<line x1="4120.37" y1="2669.46" x2="4120.37" y2="2604.66" style="stroke:#F0F0F0;stroke-width:9.72"/>
	<line x1="4120.37" y1="2572.26" x2="4120.37" y2="2507.46" style="stroke:#F0F0F0;stroke-width:9.72"/>
	<line x1="4120.37" y1="2475.06" x2="4120.37" y2="2410.26" style="stroke:#F0F0F0;stroke-width:9.72"/>
	<line x1="4120.37" y1="2377.86" x2="4120.37" y2="2313.06" style="stroke:#F0F0F0;stroke-width:9.72"/>
	<line x1="4120.37" y1="2280.66" x2="4120.37" y2="2215.86" style="stroke:#F0F0F0;stroke-width:9.72"/>
	<line x1="4120.37" y1="2183.46" x2="4120.37" y2="2118.66" style="stroke:#F0F0F0;stroke-width:9.72"/>
	<line x1="4120.37" y1="2086.26" x2="4120.37" y2="2021.46" style="stroke:#F0F0F0;stroke-width:9.72"/>
	<line x1="4120.37" y1="1989.06" x2="4120.37" y2="1924.26" style="stroke:#F0F0F0;stroke-width:9.72"/>
	<line x1="4120.37" y1="1891.86" x2="4120.37" y2="1827.06" style="stroke:#F0F0F0;stroke-width:9.72"/>
	<line x1="4120.37" y1="1794.66" x2="4120.37" y2="1729.86" style="stroke:#F0F0F0;stroke-width:9.72"/>
	<line x1="4120.37" y1="1697.46" x2="4120.37" y2="1632.66" style="stroke:#F0F0F0;stroke-width:9.72"/>
	<line x1="4120.37" y1="1600.26" x2="4120.37" y2="1535.46" style="stroke:#F0F0F0;stroke-width:9.72"/>
	<line x1="4120.37" y1="1503.06" x2="4120.37" y2="1438.26" style="stroke:#F0F0F0;stroke-width:9.72"/>
	<line x1="4120.37" y1="1405.86" x2="4120.37" y2="1341.06" style="stroke:#F0F0F0;stroke-width:9.72"/>
	<line x1="4120.37" y1="1308.66" x2="4120.37" y2="1243.86" style="stroke:#F0F0F0;stroke-width:9.72"/>
	<line x1="4120.37" y1="1211.46" x2="4120.37" y2="1146.66" style="stroke:#F0F0F0;stroke-width:9.72"/>
	<line x1="4120.37" y1="1114.26" x2="4120.37" y2="1049.46" style="stroke:#F0F0F0;stroke-width:9.72"/>
	<line x1="4120.37" y1="1017.06" x2="4120.37" y2="952.26" style="stroke:#F0F0F0;stroke-width:9.72"/>
	<line x1="4120.37" y1="919.86" x2="4120.37" y2="855.06" style="stroke:#F0F0F0;stroke-width:9.72"/>
	<line x1="4120.37" y1="822.66" x2="4120.37" y2="757.86" style="stroke:#F0F0F0;stroke-width:9.72"/>
	<line x1="4120.37" y1="725.46" x2="4120.37" y2="660.66" style="stroke:#F0F0F0;stroke-width:9.72"/>
	<line x1="4120.37" y1="628.26" x2="4120.37" y2="563.46" style="stroke:#F0F0F0;stroke-width:9.72"/>
	<line x1="4120.37" y1="531.06" x2="4120.37" y2="466.26" style="stroke:#F0F0F0;stroke-width:9.72"/>
	<line x1="4120.37" y1="433.86" x2="4120.37" y2="369.06" style="stroke:#F0F0F0;stroke-width:9.72"/>
	<line x1="4120.37" y1="336.66" x2="4120.37" y2="309.82" style="stroke:#F0F0F0;stroke-width:9.72"/>
	<line x1="5215.39" y1="2766.66" x2="5215.39" y2="2701.86" style="stroke:#F0F0F0;stroke-width:9.72"/>
	<line x1="5215.39" y1="2669.46" x2="5215.39" y2="2604.66" style="stroke:#F0F0F0;stroke-width:9.72"/>
	<line x1="5215.39" y1="2572.26" x2="5215.39" y2="2507.46" style="stroke:#F0F0F0;stroke-width:9.72"/>
	<line x1="5215.39" y1="2475.06" x2="5215.39" y2="2410.26" style="stroke:#F0F0F0;stroke-width:9.72"/>
	<line x1="5215.39" y1="2377.86" x2="5215.39" y2="2313.06" style="stroke:#F0F0F0;stroke-width:9.72"/>
	<line x1="5215.39" y1="2280.66" x2="5215.39" y2="2215.86" style="stroke:#F0F0F0;stroke-width:9.72"/>
	<line x1="5215.39" y1="2183.46" x2="5215.39" y2="2118.66" style="stroke:#F0F0F0;stroke-width:9.72"/>
	<line x1="5215.39" y1="2086.26" x2="5215.39" y2="2021.46" style="stroke:#F0F0F0;stroke-width:9.72"/>
	<line x1="5215.39" y1="1989.06" x2="5215.39" y2="1924.26" style="stroke:#F0F0F0;stroke-width:9.72"/>
	<line x1="5215.39" y1="1891.86" x2="5215.39" y2="1827.06" style="stroke:#F0F0F0;stroke-width:9.72"/>
	<line x1="5215.39" y1="1794.66" x2="5215.39" y2="1729.86" style="stroke:#F0F0F0;stroke-width:9.72"/>
	<line x1="5215.39" y1="1697.46" x2="5215.39" y2="1632.66" style="stroke:#F0F0F0;stroke-width:9.72"/>
	<line x1="5215.39" y1="1600.26" x2="5215.39" y2="1535.46" style="stroke:#F0F0F0;stroke-width:9.72"/>
	<line x1="5215.39" y1="1503.06" x2="5215.39" y2="1438.26" style="stroke:#F0F0F0;stroke-width:9.72"/>
	<line x1="5215.39" y1="1405.86" x2="5215.39" y2="1341.06" style="stroke:#F0F0F0;stroke-width:9.72"/>
	<line x1="5215.39" y1="1308.66" x2="5215.39" y2="1243.86" style="stroke:#F0F0F0;stroke-width:9.72"/>
	<line x1="5215.39" y1="1211.46" x2="5215.39" y2="1146.66" style="stroke:#F0F0F0;stroke-width:9.72"/>
	<line x1="5215.39" y1="1114.26" x2="5215.39" y2="1049.46" style="stroke:#F0F0F0;stroke-width:9.72"/>
	<line x1="5215.39" y1="1017.06" x2="5215.39" y2="952.26" style="stroke:#F0F0F0;stroke-width:9.72"/>
	<line x1="5215.39" y1="919.86" x2="5215.39" y2="855.06" style="stroke:#F0F0F0;stroke-width:9.72"/>
	<line x1="5215.39" y1="822.66" x2="5215.39" y2="757.86" style="stroke:#F0F0F0;stroke-width:9.72"/>
	<line x1="5215.39" y1="725.46" x2="5215.39" y2="660.66" style="stroke:#F0F0F0;stroke-width:9.72"/>
	<line x1="5215.39" y1="628.26" x2="5215.39" y2="563.46" style="stroke:#F0F0F0;stroke-width:9.72"/>
	<line x1="5215.39" y1="531.06" x2="5215.39" y2="466.26" style="stroke:#F0F0F0;stroke-width:9.72"/>
	<line x1="5215.39" y1="433.86" x2="5215.39" y2="369.06" style="stroke:#F0F0F0;stroke-width:9.72"/>
	<line x1="5215.39" y1="336.66" x2="5215.39" y2="309.82" style="stroke:#F0F0F0;stroke-width:9.72"/>
	<rect x="837.00" y="1812.38" width="481.78" height="954.28" style="fill:#3191FF"/>
	<rect x="839.43" y="1814.81" width="476.92" height="949.42" style="fill:none;stroke:#5FAAFF;stroke-width:4.86"/>
	<rect x="1318.78" y="1526.18" width="481.61" height="1240.48" style="fill:#3191FF"/>
	<rect x="1321.21" y="1528.61" width="476.75" height="1235.62" style="fill:none;stroke:#5FAAFF;stroke-width:4.86"/>
	<rect x="1800.39" y="381.04" width="481.61" height="2385.62" style="fill:#3191FF"/>
	<rect x="1802.82" y="383.47" width="476.75" height="2380.76" style="fill:none;stroke:#5FAAFF;stroke-width:4.86"/>
	<rect x="2282.01" y="2098.57" width="481.78" height="668.08" style="fill:#3191FF"/>
	<rect x="2284.44" y="2101.00" width="476.92" height="663.22" style="fill:none;stroke:#5FAAFF;stroke-width:4.86"/>
	<rect x="2763.79" y="2098.57" width="481.61" height="668.08" style="fill:#3191FF"/>
	<rect x="2766.22" y="2101.00" width="476.75" height="663.22" style="fill:none;stroke:#5FAAFF;stroke-width:4.86"/>
	<rect x="3245.40" y="2480.29" width="481.61" height="286.37" style="fill:#3191FF"/>
	<rect x="3247.83" y="2482.72" width="476.75" height="281.51" style="fill:none;stroke:#5FAAFF;stroke-width:4.86"/>
	<rect x="3727.01" y="2289.43" width="481.78" height="477.22" style="fill:#3191FF"/>
	<rect x="3729.44" y="2291.86" width="476.92" height="472.36" style="fill:none;stroke:#5FAAFF;stroke-width:4.86"/>
	<rect x="4208.79" y="2671.14" width="481.61" height="95.51" style="fill:#3191FF"/>
	<rect x="4211.22" y="2673.57" width="476.75" height="90.65" style="fill:none;stroke:#5FAAFF;stroke-width:4.86"/>
	<line x1="524.98" y1="2766.66" x2="524.98" y2="309.82" style="stroke:#000000;stroke-width:6.48"/>
	<line x1="524.98" y1="2766.66" x2="479.93" y2="2766.66" style="stroke:#000000;stroke-width:6.48"/>
	<text x="457.48" y="2806.09" style="font-family:'Helvetica';font-size:112.56px;fill:#000000" text-anchor="end">0</text>
	<line x1="524.98" y1="2289.43" x2="479.93" y2="2289.43" style="stroke:#000000;stroke-width:6.48"/>
	<text x="457.48" y="2328.87" style="font-family:'Helvetica';font-size:112.56px;fill:#000000" text-anchor="end">5</text>
	<line x1="524.98" y1="1812.38" x2="479.93" y2="1812.38" style="stroke:#000000;stroke-width:6.48"/>
	<text x="457.48" y="1851.81" style="font-family:'Helvetica';font-size:112.56px;fill:#000000" text-anchor="end">10</text>
	<line x1="524.98" y1="1335.32" x2="479.93" y2="1335.32" style="stroke:#000000;stroke-width:6.48"/>
	<text x="457.48" y="1374.76" style="font-family:'Helvetica';font-size:112.56px;fill:#000000" text-anchor="end">15</text>
	<line x1="524.98" y1="858.09" x2="479.93" y2="858.09" style="stroke:#000000;stroke-width:6.48"/>
	<text x="457.48" y="897.53" style="font-family:'Helvetica';font-size:112.56px;fill:#000000" text-anchor="end">20</text>
	<line x1="524.98" y1="381.04" x2="479.93" y2="381.04" style="stroke:#000000;stroke-width:6.48"/>
	<text x="457.48" y="420.47" style="font-family:'Helvetica';font-size:112.56px;fill:#000000" text-anchor="end">25</text>
	<text x="214.55" y="1538.16" style="font-family:'Helvetica';font-size:112.56px;fill:#000000" transform="rotate(-90 214.55,1538.16)" text-anchor="middle">Frequency</text>
	<line x1="524.98" y1="2766.66" x2="5286.60" y2="2766.66" style="stroke:#000000;stroke-width:6.48"/>
	<line x1="835.48" y1="2766.66" x2="835.48" y2="2811.54" style="stroke:#000000;stroke-width:6.48"/>
	<text x="835.48" y="2912.86" style="font-family:'Helvetica';font-size:112.56px;fill:#000000" text-anchor="middle">0</text>
	<line x1="1930.50" y1="2766.66" x2="1930.50" y2="2811.54" style="stroke:#000000;stroke-width:6.48"/>
	<text x="1930.50" y="2912.86" style="font-family:'Helvetica';font-size:112.56px;fill:#000000" text-anchor="middle">5000</text>
	<line x1="3025.35" y1="2766.66" x2="3025.35" y2="2811.54" style="stroke:#000000;stroke-width:6.48"/>
	<text x="3025.35" y="2912.86" style="font-family:'Helvetica';font-size:112.56px;fill:#000000" text-anchor="middle">10000</text>
	<line x1="4120.37" y1="2766.66" x2="4120.37" y2="2811.54" style="stroke:#000000;stroke-width:6.48"/>
	<text x="4120.37" y="2912.86" style="font-family:'Helvetica';font-size:112.56px;fill:#000000" text-anchor="middle">15000</text>
	<line x1="5215.39" y1="2766.66" x2="5215.39" y2="2811.54" style="stroke:#000000;stroke-width:6.48"/>
	<text x="5215.39" y="2912.86" style="font-family:'Helvetica';font-size:112.56px;fill:#000000" text-anchor="middle">20000</text>
	<text x="2905.71" y="3070.31" style="font-family:'Helvetica';font-size:112.56px;fill:#000000" text-anchor="middle">Pedometer 1 (SM-2000/PINGKO) Day 1 Steps</text>
	<text x="2905.71" y="243.10" style="font-family:'Helvetica';font-size:157.44px;fill:#000000" text-anchor="middle">Distribution of Pedometer 1 Steps</text>
</svg>
