<?xml version="1.0" encoding="UTF-8" standalone="no"?>
<!-- This is a Stata 18.0 generated SVG file (http://www.stata.com) -->

<svg version="1.1" width="7.500in" height="4.500in" viewBox="0 0 5400 3240" xmlns="http://www.w3.org/2000/svg" xmlns:xlink="http://www.w3.org/1999/xlink">
	<desc>Stata Graph - Graph</desc>
	<rect x="0" y="0" width="5400" height="3240" style="fill:#FFFFFF;stroke:none"/>
	<rect x="0.00" y="0.00" width="5400.00" height="3240.00" style="fill:#FFFFFF"/>
	<rect x="3.24" y="3.24" width="5393.52" height="3233.52" style="fill:none;stroke:#FFFFFF;stroke-width:6.48"/>
	<rect x="524.98" y="113.40" width="4761.62" height="2653.26" style="fill:#FFFFFF"/>
	<rect x="528.22" y="116.64" width="4755.14" height="2646.78" style="fill:none;stroke:#FFFFFF;stroke-width:6.48"/>
	<line x1="524.98" y1="2766.66" x2="589.78" y2="2766.66" style="stroke:#F0F0F0;stroke-width:9.72"/>
	<line x1="622.18" y1="2766.66" x2="686.98" y2="2766.66" style="stroke:#F0F0F0;stroke-width:9.72"/>
	<line x1="719.38" y1="2766.66" x2="784.18" y2="2766.66" style="stroke:#F0F0F0;stroke-width:9.72"/>
	<line x1="816.58" y1="2766.66" x2="881.38" y2="2766.66" style="stroke:#F0F0F0;stroke-width:9.72"/>
	<line x1="913.78" y1="2766.66" x2="978.58" y2="2766.66" style="stroke:#F0F0F0;stroke-width:9.72"/>
	<line x1="1010.98" y1="2766.66" x2="1075.78" y2="2766.66" style="stroke:#F0F0F0;stroke-width:9.72"/>
	<line x1="1108.18" y1="2766.66" x2="1172.98" y2="2766.66" style="stroke:#F0F0F0;stroke-width:9.72"/>
	<line x1="1205.38" y1="2766.66" x2="1270.18" y2="2766.66" style="stroke:#F0F0F0;stroke-width:9.72"/>
	<line x1="1302.58" y1="2766.66" x2="1367.38" y2="2766.66" style="stroke:#F0F0F0;stroke-width:9.72"/>
	<line x1="1399.78" y1="2766.66" x2="1464.58" y2="2766.66" style="stroke:#F0F0F0;stroke-width:9.72"/>
	<line x1="1496.98" y1="2766.66" x2="1561.78" y2="2766.66" style="stroke:#F0F0F0;stroke-width:9.72"/>
	<line x1="1594.18" y1="2766.66" x2="1658.98" y2="2766.66" style="stroke:#F0F0F0;stroke-width:9.72"/>
	<line x1="1691.38" y1="2766.66" x2="1756.18" y2="2766.66" style="stroke:#F0F0F0;stroke-width:9.72"/>
	<line x1="1788.58" y1="2766.66" x2="1853.38" y2="2766.66" style="stroke:#F0F0F0;stroke-width:9.72"/>
	<line x1="1885.78" y1="2766.66" x2="1950.58" y2="2766.66" style="stroke:#F0F0F0;stroke-width:9.72"/>
	<line x1="1982.98" y1="2766.66" x2="2047.78" y2="2766.66" style="stroke:#F0F0F0;stroke-width:9.72"/>
	<line x1="2080.18" y1="2766.66" x2="2144.98" y2="2766.66" style="stroke:#F0F0F0;stroke-width:9.72"/>
	<line x1="2177.38" y1="2766.66" x2="2242.18" y2="2766.66" style="stroke:#F0F0F0;stroke-width:9.72"/>
	<line x1="2274.58" y1="2766.66" x2="2339.38" y2="2766.66" style="stroke:#F0F0F0;stroke-width:9.72"/>
	<line x1="2371.78" y1="2766.66" x2="2436.58" y2="2766.66" style="stroke:#F0F0F0;stroke-width:9.72"/>
	<line x1="2468.98" y1="2766.66" x2="2533.78" y2="2766.66" style="stroke:#F0F0F0;stroke-width:9.72"/>
	<line x1="2566.18" y1="2766.66" x2="2630.98" y2="2766.66" style="stroke:#F0F0F0;stroke-width:9.72"/>
	<line x1="2663.38" y1="2766.66" x2="2728.18" y2="2766.66" style="stroke:#F0F0F0;stroke-width:9.72"/>
	<line x1="2760.58" y1="2766.66" x2="2825.38" y2="2766.66" style="stroke:#F0F0F0;stroke-width:9.72"/>
	<line x1="2857.78" y1="2766.66" x2="2922.58" y2="2766.66" style="stroke:#F0F0F0;stroke-width:9.72"/>
	<line x1="2954.98" y1="2766.66" x2="3019.78" y2="2766.66" style="stroke:#F0F0F0;stroke-width:9.72"/>
	<line x1="3052.18" y1="2766.66" x2="3116.98" y2="2766.66" style="stroke:#F0F0F0;stroke-width:9.72"/>
	<line x1="3149.38" y1="2766.66" x2="3214.18" y2="2766.66" style="stroke:#F0F0F0;stroke-width:9.72"/>
	<line x1="3246.58" y1="2766.66" x2="3311.38" y2="2766.66" style="stroke:#F0F0F0;stroke-width:9.72"/>
	<line x1="3343.78" y1="2766.66" x2="3408.58" y2="2766.66" style="stroke:#F0F0F0;stroke-width:9.72"/>
	<line x1="3440.98" y1="2766.66" x2="3505.78" y2="2766.66" style="stroke:#F0F0F0;stroke-width:9.72"/>
	<line x1="3538.18" y1="2766.66" x2="3602.98" y2="2766.66" style="stroke:#F0F0F0;stroke-width:9.72"/>
	<line x1="3635.38" y1="2766.66" x2="3700.18" y2="2766.66" style="stroke:#F0F0F0;stroke-width:9.72"/>
	<line x1="3732.58" y1="2766.66" x2="3797.38" y2="2766.66" style="stroke:#F0F0F0;stroke-width:9.72"/>
	<line x1="3829.78" y1="2766.66" x2="3894.58" y2="2766.66" style="stroke:#F0F0F0;stroke-width:9.72"/>
	<line x1="3926.98" y1="2766.66" x2="3991.78" y2="2766.66" style="stroke:#F0F0F0;stroke-width:9.72"/>
	<line x1="4024.18" y1="2766.66" x2="4088.98" y2="2766.66" style="stroke:#F0F0F0;stroke-width:9.72"/>
	<line x1="4121.38" y1="2766.66" x2="4186.18" y2="2766.66" style="stroke:#F0F0F0;stroke-width:9.72"/>
	<line x1="4218.58" y1="2766.66" x2="4283.38" y2="2766.66" style="stroke:#F0F0F0;stroke-width:9.72"/>
	<line x1="4315.78" y1="2766.66" x2="4380.58" y2="2766.66" style="stroke:#F0F0F0;stroke-width:9.72"/>
	<line x1="4412.98" y1="2766.66" x2="4477.78" y2="2766.66" style="stroke:#F0F0F0;stroke-width:9.72"/>
	<line x1="4510.18" y1="2766.66" x2="4574.98" y2="2766.66" style="stroke:#F0F0F0;stroke-width:9.72"/>
	<line x1="4607.38" y1="2766.66" x2="4672.18" y2="2766.66" style="stroke:#F0F0F0;stroke-width:9.72"/>
	<line x1="4704.58" y1="2766.66" x2="4769.38" y2="2766.66" style="stroke:#F0F0F0;stroke-width:9.72"/>
	<line x1="4801.78" y1="2766.66" x2="4866.58" y2="2766.66" style="stroke:#F0F0F0;stroke-width:9.72"/>
	<line x1="4898.98" y1="2766.66" x2="4963.78" y2="2766.66" style="stroke:#F0F0F0;stroke-width:9.72"/>
	<line x1="4996.18" y1="2766.66" x2="5060.98" y2="2766.66" style="stroke:#F0F0F0;stroke-width:9.72"/>
	<line x1="5093.38" y1="2766.66" x2="5158.18" y2="2766.66" style="stroke:#F0F0F0;stroke-width:9.72"/>
	<line x1="5190.58" y1="2766.66" x2="5255.38" y2="2766.66" style="stroke:#F0F0F0;stroke-width:9.72"/>
	<line x1="524.98" y1="2172.99" x2="589.78" y2="2172.99" style="stroke:#F0F0F0;stroke-width:9.72"/>
	<line x1="622.18" y1="2172.99" x2="686.98" y2="2172.99" style="stroke:#F0F0F0;stroke-width:9.72"/>
	<line x1="719.38" y1="2172.99" x2="784.18" y2="2172.99" style="stroke:#F0F0F0;stroke-width:9.72"/>
	<line x1="816.58" y1="2172.99" x2="881.38" y2="2172.99" style="stroke:#F0F0F0;stroke-width:9.72"/>
	<line x1="913.78" y1="2172.99" x2="978.58" y2="2172.99" style="stroke:#F0F0F0;stroke-width:9.72"/>
	<line x1="1010.98" y1="2172.99" x2="1075.78" y2="2172.99" style="stroke:#F0F0F0;stroke-width:9.72"/>
	<line x1="1108.18" y1="2172.99" x2="1172.98" y2="2172.99" style="stroke:#F0F0F0;stroke-width:9.72"/>
	<line x1="1205.38" y1="2172.99" x2="1270.18" y2="2172.99" style="stroke:#F0F0F0;stroke-width:9.72"/>
	<line x1="1302.58" y1="2172.99" x2="1367.38" y2="2172.99" style="stroke:#F0F0F0;stroke-width:9.72"/>
	<line x1="1399.78" y1="2172.99" x2="1464.58" y2="2172.99" style="stroke:#F0F0F0;stroke-width:9.72"/>
	<line x1="1496.98" y1="2172.99" x2="1561.78" y2="2172.99" style="stroke:#F0F0F0;stroke-width:9.72"/>
	<line x1="1594.18" y1="2172.99" x2="1658.98" y2="2172.99" style="stroke:#F0F0F0;stroke-width:9.72"/>
	<line x1="1691.38" y1="2172.99" x2="1756.18" y2="2172.99" style="stroke:#F0F0F0;stroke-width:9.72"/>
	<line x1="1788.58" y1="2172.99" x2="1853.38" y2="2172.99" style="stroke:#F0F0F0;stroke-width:9.72"/>
	<line x1="1885.78" y1="2172.99" x2="1950.58" y2="2172.99" style="stroke:#F0F0F0;stroke-width:9.72"/>
	<line x1="1982.98" y1="2172.99" x2="2047.78" y2="2172.99" style="stroke:#F0F0F0;stroke-width:9.72"/>
	<line x1="2080.18" y1="2172.99" x2="2144.98" y2="2172.99" style="stroke:#F0F0F0;stroke-width:9.72"/>
	<line x1="2177.38" y1="2172.99" x2="2242.18" y2="2172.99" style="stroke:#F0F0F0;stroke-width:9.72"/>
	<line x1="2274.58" y1="2172.99" x2="2339.38" y2="2172.99" style="stroke:#F0F0F0;stroke-width:9.72"/>
	<line x1="2371.78" y1="2172.99" x2="2436.58" y2="2172.99" style="stroke:#F0F0F0;stroke-width:9.72"/>
	<line x1="2468.98" y1="2172.99" x2="2533.78" y2="2172.99" style="stroke:#F0F0F0;stroke-width:9.72"/>
	<line x1="2566.18" y1="2172.99" x2="2630.98" y2="2172.99" style="stroke:#F0F0F0;stroke-width:9.72"/>
	<line x1="2663.38" y1="2172.99" x2="2728.18" y2="2172.99" style="stroke:#F0F0F0;stroke-width:9.72"/>
	<line x1="2760.58" y1="2172.99" x2="2825.38" y2="2172.99" style="stroke:#F0F0F0;stroke-width:9.72"/>
	<line x1="2857.78" y1="2172.99" x2="2922.58" y2="2172.99" style="stroke:#F0F0F0;stroke-width:9.72"/>
	<line x1="2954.98" y1="2172.99" x2="3019.78" y2="2172.99" style="stroke:#F0F0F0;stroke-width:9.72"/>
	<line x1="3052.18" y1="2172.99" x2="3116.98" y2="2172.99" style="stroke:#F0F0F0;stroke-width:9.72"/>
	<line x1="3149.38" y1="2172.99" x2="3214.18" y2="2172.99" style="stroke:#F0F0F0;stroke-width:9.72"/>
	<line x1="3246.58" y1="2172.99" x2="3311.38" y2="2172.99" style="stroke:#F0F0F0;stroke-width:9.72"/>
	<line x1="3343.78" y1="2172.99" x2="3408.58" y2="2172.99" style="stroke:#F0F0F0;stroke-width:9.72"/>
	<line x1="3440.98" y1="2172.99" x2="3505.78" y2="2172.99" style="stroke:#F0F0F0;stroke-width:9.72"/>
	<line x1="3538.18" y1="2172.99" x2="3602.98" y2="2172.99" style="stroke:#F0F0F0;stroke-width:9.72"/>
	<line x1="3635.38" y1="2172.99" x2="3700.18" y2="2172.99" style="stroke:#F0F0F0;stroke-width:9.72"/>
	<line x1="3732.58" y1="2172.99" x2="3797.38" y2="2172.99" style="stroke:#F0F0F0;stroke-width:9.72"/>
	<line x1="3829.78" y1="2172.99" x2="3894.58" y2="2172.99" style="stroke:#F0F0F0;stroke-width:9.72"/>
	<line x1="3926.98" y1="2172.99" x2="3991.78" y2="2172.99" style="stroke:#F0F0F0;stroke-width:9.72"/>
	<line x1="4024.18" y1="2172.99" x2="4088.98" y2="2172.99" style="stroke:#F0F0F0;stroke-width:9.72"/>
	<line x1="4121.38" y1="2172.99" x2="4186.18" y2="2172.99" style="stroke:#F0F0F0;stroke-width:9.72"/>
	<line x1="4218.58" y1="2172.99" x2="4283.38" y2="2172.99" style="stroke:#F0F0F0;stroke-width:9.72"/>
	<line x1="4315.78" y1="2172.99" x2="4380.58" y2="2172.99" style="stroke:#F0F0F0;stroke-width:9.72"/>
	<line x1="4412.98" y1="2172.99" x2="4477.78" y2="2172.99" style="stroke:#F0F0F0;stroke-width:9.72"/>
	<line x1="4510.18" y1="2172.99" x2="4574.98" y2="2172.99" style="stroke:#F0F0F0;stroke-width:9.72"/>
	<line x1="4607.38" y1="2172.99" x2="4672.18" y2="2172.99" style="stroke:#F0F0F0;stroke-width:9.72"/>
	<line x1="4704.58" y1="2172.99" x2="4769.38" y2="2172.99" style="stroke:#F0F0F0;stroke-width:9.72"/>
	<line x1="4801.78" y1="2172.99" x2="4866.58" y2="2172.99" style="stroke:#F0F0F0;stroke-width:9.72"/>
	<line x1="4898.98" y1="2172.99" x2="4963.78" y2="2172.99" style="stroke:#F0F0F0;stroke-width:9.72"/>
	<line x1="4996.18" y1="2172.99" x2="5060.98" y2="2172.99" style="stroke:#F0F0F0;stroke-width:9.72"/>
	<line x1="5093.38" y1="2172.99" x2="5158.18" y2="2172.99" style="stroke:#F0F0F0;stroke-width:9.72"/>
	<line x1="5190.58" y1="2172.99" x2="5255.38" y2="2172.99" style="stroke:#F0F0F0;stroke-width:9.72"/>
	<line x1="524.98" y1="1579.50" x2="589.78" y2="1579.50" style="stroke:#F0F0F0;stroke-width:9.72"/>
	<line x1="622.18" y1="1579.50" x2="686.98" y2="1579.50" style="stroke:#F0F0F0;stroke-width:9.72"/>
	<line x1="719.38" y1="1579.50" x2="784.18" y2="1579.50" style="stroke:#F0F0F0;stroke-width:9.72"/>
	<line x1="816.58" y1="1579.50" x2="881.38" y2="1579.50" style="stroke:#F0F0F0;stroke-width:9.72"/>
	<line x1="913.78" y1="1579.50" x2="978.58" y2="1579.50" style="stroke:#F0F0F0;stroke-width:9.72"/>
	<line x1="1010.98" y1="1579.50" x2="1075.78" y2="1579.50" style="stroke:#F0F0F0;stroke-width:9.72"/>
	<line x1="1108.18" y1="1579.50" x2="1172.98" y2="1579.50" style="stroke:#F0F0F0;stroke-width:9.72"/>
	<line x1="1205.38" y1="1579.50" x2="1270.18" y2="1579.50" style="stroke:#F0F0F0;stroke-width:9.72"/>
	<line x1="1302.58" y1="1579.50" x2="1367.38" y2="1579.50" style="stroke:#F0F0F0;stroke-width:9.72"/>
	<line x1="1399.78" y1="1579.50" x2="1464.58" y2="1579.50" style="stroke:#F0F0F0;stroke-width:9.72"/>
	<line x1="1496.98" y1="1579.50" x2="1561.78" y2="1579.50" style="stroke:#F0F0F0;stroke-width:9.72"/>
	<line x1="1594.18" y1="1579.50" x2="1658.98" y2="1579.50" style="stroke:#F0F0F0;stroke-width:9.72"/>
	<line x1="1691.38" y1="1579.50" x2="1756.18" y2="1579.50" style="stroke:#F0F0F0;stroke-width:9.72"/>
	<line x1="1788.58" y1="1579.50" x2="1853.38" y2="1579.50" style="stroke:#F0F0F0;stroke-width:9.72"/>
	<line x1="1885.78" y1="1579.50" x2="1950.58" y2="1579.50" style="stroke:#F0F0F0;stroke-width:9.72"/>
	<line x1="1982.98" y1="1579.50" x2="2047.78" y2="1579.50" style="stroke:#F0F0F0;stroke-width:9.72"/>
	<line x1="2080.18" y1="1579.50" x2="2144.98" y2="1579.50" style="stroke:#F0F0F0;stroke-width:9.72"/>
	<line x1="2177.38" y1="1579.50" x2="2242.18" y2="1579.50" style="stroke:#F0F0F0;stroke-width:9.72"/>
	<line x1="2274.58" y1="1579.50" x2="2339.38" y2="1579.50" style="stroke:#F0F0F0;stroke-width:9.72"/>
	<line x1="2371.78" y1="1579.50" x2="2436.58" y2="1579.50" style="stroke:#F0F0F0;stroke-width:9.72"/>
	<line x1="2468.98" y1="1579.50" x2="2533.78" y2="1579.50" style="stroke:#F0F0F0;stroke-width:9.72"/>
	<line x1="2566.18" y1="1579.50" x2="2630.98" y2="1579.50" style="stroke:#F0F0F0;stroke-width:9.72"/>
	<line x1="2663.38" y1="1579.50" x2="2728.18" y2="1579.50" style="stroke:#F0F0F0;stroke-width:9.72"/>
	<line x1="2760.58" y1="1579.50" x2="2825.38" y2="1579.50" style="stroke:#F0F0F0;stroke-width:9.72"/>
	<line x1="2857.78" y1="1579.50" x2="2922.58" y2="1579.50" style="stroke:#F0F0F0;stroke-width:9.72"/>
	<line x1="2954.98" y1="1579.50" x2="3019.78" y2="1579.50" style="stroke:#F0F0F0;stroke-width:9.72"/>
	<line x1="3052.18" y1="1579.50" x2="3116.98" y2="1579.50" style="stroke:#F0F0F0;stroke-width:9.72"/>
	<line x1="3149.38" y1="1579.50" x2="3214.18" y2="1579.50" style="stroke:#F0F0F0;stroke-width:9.72"/>
	<line x1="3246.58" y1="1579.50" x2="3311.38" y2="1579.50" style="stroke:#F0F0F0;stroke-width:9.72"/>
	<line x1="3343.78" y1="1579.50" x2="3408.58" y2="1579.50" style="stroke:#F0F0F0;stroke-width:9.72"/>
	<line x1="3440.98" y1="1579.50" x2="3505.78" y2="1579.50" style="stroke:#F0F0F0;stroke-width:9.72"/>
	<line x1="3538.18" y1="1579.50" x2="3602.98" y2="1579.50" style="stroke:#F0F0F0;stroke-width:9.72"/>
	<line x1="3635.38" y1="1579.50" x2="3700.18" y2="1579.50" style="stroke:#F0F0F0;stroke-width:9.72"/>
	<line x1="3732.58" y1="1579.50" x2="3797.38" y2="1579.50" style="stroke:#F0F0F0;stroke-width:9.72"/>
	<line x1="3829.78" y1="1579.50" x2="3894.58" y2="1579.50" style="stroke:#F0F0F0;stroke-width:9.72"/>
	<line x1="3926.98" y1="1579.50" x2="3991.78" y2="1579.50" style="stroke:#F0F0F0;stroke-width:9.72"/>
	<line x1="4024.18" y1="1579.50" x2="4088.98" y2="1579.50" style="stroke:#F0F0F0;stroke-width:9.72"/>
	<line x1="4121.38" y1="1579.50" x2="4186.18" y2="1579.50" style="stroke:#F0F0F0;stroke-width:9.72"/>
	<line x1="4218.58" y1="1579.50" x2="4283.38" y2="1579.50" style="stroke:#F0F0F0;stroke-width:9.72"/>
	<line x1="4315.78" y1="1579.50" x2="4380.58" y2="1579.50" style="stroke:#F0F0F0;stroke-width:9.72"/>
	<line x1="4412.98" y1="1579.50" x2="4477.78" y2="1579.50" style="stroke:#F0F0F0;stroke-width:9.72"/>
	<line x1="4510.18" y1="1579.50" x2="4574.98" y2="1579.50" style="stroke:#F0F0F0;stroke-width:9.72"/>
	<line x1="4607.38" y1="1579.50" x2="4672.18" y2="1579.50" style="stroke:#F0F0F0;stroke-width:9.72"/>
	<line x1="4704.58" y1="1579.50" x2="4769.38" y2="1579.50" style="stroke:#F0F0F0;stroke-width:9.72"/>
	<line x1="4801.78" y1="1579.50" x2="4866.58" y2="1579.50" style="stroke:#F0F0F0;stroke-width:9.72"/>
	<line x1="4898.98" y1="1579.50" x2="4963.78" y2="1579.50" style="stroke:#F0F0F0;stroke-width:9.72"/>
	<line x1="4996.18" y1="1579.50" x2="5060.98" y2="1579.50" style="stroke:#F0F0F0;stroke-width:9.72"/>
	<line x1="5093.38" y1="1579.50" x2="5158.18" y2="1579.50" style="stroke:#F0F0F0;stroke-width:9.72"/>
	<line x1="5190.58" y1="1579.50" x2="5255.38" y2="1579.50" style="stroke:#F0F0F0;stroke-width:9.72"/>
	<line x1="524.98" y1="986.01" x2="589.78" y2="986.01" style="stroke:#F0F0F0;stroke-width:9.72"/>
	<line x1="622.18" y1="986.01" x2="686.98" y2="986.01" style="stroke:#F0F0F0;stroke-width:9.72"/>
	<line x1="719.38" y1="986.01" x2="784.18" y2="986.01" style="stroke:#F0F0F0;stroke-width:9.72"/>
	<line x1="816.58" y1="986.01" x2="881.38" y2="986.01" style="stroke:#F0F0F0;stroke-width:9.72"/>
	<line x1="913.78" y1="986.01" x2="978.58" y2="986.01" style="stroke:#F0F0F0;stroke-width:9.72"/>
	<line x1="1010.98" y1="986.01" x2="1075.78" y2="986.01" style="stroke:#F0F0F0;stroke-width:9.72"/>
	<line x1="1108.18" y1="986.01" x2="1172.98" y2="986.01" style="stroke:#F0F0F0;stroke-width:9.72"/>
	<line x1="1205.38" y1="986.01" x2="1270.18" y2="986.01" style="stroke:#F0F0F0;stroke-width:9.72"/>
	<line x1="1302.58" y1="986.01" x2="1367.38" y2="986.01" style="stroke:#F0F0F0;stroke-width:9.72"/>
	<line x1="1399.78" y1="986.01" x2="1464.58" y2="986.01" style="stroke:#F0F0F0;stroke-width:9.72"/>
	<line x1="1496.98" y1="986.01" x2="1561.78" y2="986.01" style="stroke:#F0F0F0;stroke-width:9.72"/>
	<line x1="1594.18" y1="986.01" x2="1658.98" y2="986.01" style="stroke:#F0F0F0;stroke-width:9.72"/>
	<line x1="1691.38" y1="986.01" x2="1756.18" y2="986.01" style="stroke:#F0F0F0;stroke-width:9.72"/>
	<line x1="1788.58" y1="986.01" x2="1853.38" y2="986.01" style="stroke:#F0F0F0;stroke-width:9.72"/>
	<line x1="1885.78" y1="986.01" x2="1950.58" y2="986.01" style="stroke:#F0F0F0;stroke-width:9.72"/>
	<line x1="1982.98" y1="986.01" x2="2047.78" y2="986.01" style="stroke:#F0F0F0;stroke-width:9.72"/>
	<line x1="2080.18" y1="986.01" x2="2144.98" y2="986.01" style="stroke:#F0F0F0;stroke-width:9.72"/>
	<line x1="2177.38" y1="986.01" x2="2242.18" y2="986.01" style="stroke:#F0F0F0;stroke-width:9.72"/>
	<line x1="2274.58" y1="986.01" x2="2339.38" y2="986.01" style="stroke:#F0F0F0;stroke-width:9.72"/>
	<line x1="2371.78" y1="986.01" x2="2436.58" y2="986.01" style="stroke:#F0F0F0;stroke-width:9.72"/>
	<line x1="2468.98" y1="986.01" x2="2533.78" y2="986.01" style="stroke:#F0F0F0;stroke-width:9.72"/>
	<line x1="2566.18" y1="986.01" x2="2630.98" y2="986.01" style="stroke:#F0F0F0;stroke-width:9.72"/>
	<line x1="2663.38" y1="986.01" x2="2728.18" y2="986.01" style="stroke:#F0F0F0;stroke-width:9.72"/>
	<line x1="2760.58" y1="986.01" x2="2825.38" y2="986.01" style="stroke:#F0F0F0;stroke-width:9.72"/>
	<line x1="2857.78" y1="986.01" x2="2922.58" y2="986.01" style="stroke:#F0F0F0;stroke-width:9.72"/>
	<line x1="2954.98" y1="986.01" x2="3019.78" y2="986.01" style="stroke:#F0F0F0;stroke-width:9.72"/>
	<line x1="3052.18" y1="986.01" x2="3116.98" y2="986.01" style="stroke:#F0F0F0;stroke-width:9.72"/>
	<line x1="3149.38" y1="986.01" x2="3214.18" y2="986.01" style="stroke:#F0F0F0;stroke-width:9.72"/>
	<line x1="3246.58" y1="986.01" x2="3311.38" y2="986.01" style="stroke:#F0F0F0;stroke-width:9.72"/>
	<line x1="3343.78" y1="986.01" x2="3408.58" y2="986.01" style="stroke:#F0F0F0;stroke-width:9.72"/>
	<line x1="3440.98" y1="986.01" x2="3505.78" y2="986.01" style="stroke:#F0F0F0;stroke-width:9.72"/>
	<line x1="3538.18" y1="986.01" x2="3602.98" y2="986.01" style="stroke:#F0F0F0;stroke-width:9.72"/>
	<line x1="3635.38" y1="986.01" x2="3700.18" y2="986.01" style="stroke:#F0F0F0;stroke-width:9.72"/>
	<line x1="3732.58" y1="986.01" x2="3797.38" y2="986.01" style="stroke:#F0F0F0;stroke-width:9.72"/>
	<line x1="3829.78" y1="986.01" x2="3894.58" y2="986.01" style="stroke:#F0F0F0;stroke-width:9.72"/>
	<line x1="3926.98" y1="986.01" x2="3991.78" y2="986.01" style="stroke:#F0F0F0;stroke-width:9.72"/>
	<line x1="4024.18" y1="986.01" x2="4088.98" y2="986.01" style="stroke:#F0F0F0;stroke-width:9.72"/>
	<line x1="4121.38" y1="986.01" x2="4186.18" y2="986.01" style="stroke:#F0F0F0;stroke-width:9.72"/>
	<line x1="4218.58" y1="986.01" x2="4283.38" y2="986.01" style="stroke:#F0F0F0;stroke-width:9.72"/>
	<line x1="4315.78" y1="986.01" x2="4380.58" y2="986.01" style="stroke:#F0F0F0;stroke-width:9.72"/>
	<line x1="4412.98" y1="986.01" x2="4477.78" y2="986.01" style="stroke:#F0F0F0;stroke-width:9.72"/>
	<line x1="4510.18" y1="986.01" x2="4574.98" y2="986.01" style="stroke:#F0F0F0;stroke-width:9.72"/>
	<line x1="4607.38" y1="986.01" x2="4672.18" y2="986.01" style="stroke:#F0F0F0;stroke-width:9.72"/>
	<line x1="4704.58" y1="986.01" x2="4769.38" y2="986.01" style="stroke:#F0F0F0;stroke-width:9.72"/>
	<line x1="4801.78" y1="986.01" x2="4866.58" y2="986.01" style="stroke:#F0F0F0;stroke-width:9.72"/>
	<line x1="4898.98" y1="986.01" x2="4963.78" y2="986.01" style="stroke:#F0F0F0;stroke-width:9.72"/>
	<line x1="4996.18" y1="986.01" x2="5060.98" y2="986.01" style="stroke:#F0F0F0;stroke-width:9.72"/>
	<line x1="5093.38" y1="986.01" x2="5158.18" y2="986.01" style="stroke:#F0F0F0;stroke-width:9.72"/>
	<line x1="5190.58" y1="986.01" x2="5255.38" y2="986.01" style="stroke:#F0F0F0;stroke-width:9.72"/>
	<line x1="524.98" y1="392.34" x2="589.78" y2="392.34" style="stroke:#F0F0F0;stroke-width:9.72"/>
	<line x1="622.18" y1="392.34" x2="686.98" y2="392.34" style="stroke:#F0F0F0;stroke-width:9.72"/>
	<line x1="719.38" y1="392.34" x2="784.18" y2="392.34" style="stroke:#F0F0F0;stroke-width:9.72"/>
	<line x1="816.58" y1="392.34" x2="881.38" y2="392.34" style="stroke:#F0F0F0;stroke-width:9.72"/>
	<line x1="913.78" y1="392.34" x2="978.58" y2="392.34" style="stroke:#F0F0F0;stroke-width:9.72"/>
	<line x1="1010.98" y1="392.34" x2="1075.78" y2="392.34" style="stroke:#F0F0F0;stroke-width:9.72"/>
	<line x1="1108.18" y1="392.34" x2="1172.98" y2="392.34" style="stroke:#F0F0F0;stroke-width:9.72"/>
	<line x1="1205.38" y1="392.34" x2="1270.18" y2="392.34" style="stroke:#F0F0F0;stroke-width:9.72"/>
	<line x1="1302.58" y1="392.34" x2="1367.38" y2="392.34" style="stroke:#F0F0F0;stroke-width:9.72"/>
	<line x1="1399.78" y1="392.34" x2="1464.58" y2="392.34" style="stroke:#F0F0F0;stroke-width:9.72"/>
	<line x1="1496.98" y1="392.34" x2="1561.78" y2="392.34" style="stroke:#F0F0F0;stroke-width:9.72"/>
	<line x1="1594.18" y1="392.34" x2="1658.98" y2="392.34" style="stroke:#F0F0F0;stroke-width:9.72"/>
	<line x1="1691.38" y1="392.34" x2="1756.18" y2="392.34" style="stroke:#F0F0F0;stroke-width:9.72"/>
	<line x1="1788.58" y1="392.34" x2="1853.38" y2="392.34" style="stroke:#F0F0F0;stroke-width:9.72"/>
	<line x1="1885.78" y1="392.34" x2="1950.58" y2="392.34" style="stroke:#F0F0F0;stroke-width:9.72"/>
	<line x1="1982.98" y1="392.34" x2="2047.78" y2="392.34" style="stroke:#F0F0F0;stroke-width:9.72"/>
	<line x1="2080.18" y1="392.34" x2="2144.98" y2="392.34" style="stroke:#F0F0F0;stroke-width:9.72"/>
	<line x1="2177.38" y1="392.34" x2="2242.18" y2="392.34" style="stroke:#F0F0F0;stroke-width:9.72"/>
	<line x1="2274.58" y1="392.34" x2="2339.38" y2="392.34" style="stroke:#F0F0F0;stroke-width:9.72"/>
	<line x1="2371.78" y1="392.34" x2="2436.58" y2="392.34" style="stroke:#F0F0F0;stroke-width:9.72"/>
	<line x1="2468.98" y1="392.34" x2="2533.78" y2="392.34" style="stroke:#F0F0F0;stroke-width:9.72"/>
	<line x1="2566.18" y1="392.34" x2="2630.98" y2="392.34" style="stroke:#F0F0F0;stroke-width:9.72"/>
	<line x1="2663.38" y1="392.34" x2="2728.18" y2="392.34" style="stroke:#F0F0F0;stroke-width:9.72"/>
	<line x1="2760.58" y1="392.34" x2="2825.38" y2="392.34" style="stroke:#F0F0F0;stroke-width:9.72"/>
	<line x1="2857.78" y1="392.34" x2="2922.58" y2="392.34" style="stroke:#F0F0F0;stroke-width:9.72"/>
	<line x1="2954.98" y1="392.34" x2="3019.78" y2="392.34" style="stroke:#F0F0F0;stroke-width:9.72"/>
	<line x1="3052.18" y1="392.34" x2="3116.98" y2="392.34" style="stroke:#F0F0F0;stroke-width:9.72"/>
	<line x1="3149.38" y1="392.34" x2="3214.18" y2="392.34" style="stroke:#F0F0F0;stroke-width:9.72"/>
	<line x1="3246.58" y1="392.34" x2="3311.38" y2="392.34" style="stroke:#F0F0F0;stroke-width:9.72"/>
	<line x1="3343.78" y1="392.34" x2="3408.58" y2="392.34" style="stroke:#F0F0F0;stroke-width:9.72"/>
	<line x1="3440.98" y1="392.34" x2="3505.78" y2="392.34" style="stroke:#F0F0F0;stroke-width:9.72"/>
	<line x1="3538.18" y1="392.34" x2="3602.98" y2="392.34" style="stroke:#F0F0F0;stroke-width:9.72"/>
	<line x1="3635.38" y1="392.34" x2="3700.18" y2="392.34" style="stroke:#F0F0F0;stroke-width:9.72"/>
	<line x1="3732.58" y1="392.34" x2="3797.38" y2="392.34" style="stroke:#F0F0F0;stroke-width:9.72"/>
	<line x1="3829.78" y1="392.34" x2="3894.58" y2="392.34" style="stroke:#F0F0F0;stroke-width:9.72"/>
	<line x1="3926.98" y1="392.34" x2="3991.78" y2="392.34" style="stroke:#F0F0F0;stroke-width:9.72"/>
	<line x1="4024.18" y1="392.34" x2="4088.98" y2="392.34" style="stroke:#F0F0F0;stroke-width:9.72"/>
	<line x1="4121.38" y1="392.34" x2="4186.18" y2="392.34" style="stroke:#F0F0F0;stroke-width:9.72"/>
	<line x1="4218.58" y1="392.34" x2="4283.38" y2="392.34" style="stroke:#F0F0F0;stroke-width:9.72"/>
	<line x1="4315.78" y1="392.34" x2="4380.58" y2="392.34" style="stroke:#F0F0F0;stroke-width:9.72"/>
	<line x1="4412.98" y1="392.34" x2="4477.78" y2="392.34" style="stroke:#F0F0F0;stroke-width:9.72"/>
	<line x1="4510.18" y1="392.34" x2="4574.98" y2="392.34" style="stroke:#F0F0F0;stroke-width:9.72"/>
	<line x1="4607.38" y1="392.34" x2="4672.18" y2="392.34" style="stroke:#F0F0F0;stroke-width:9.72"/>
	<line x1="4704.58" y1="392.34" x2="4769.38" y2="392.34" style="stroke:#F0F0F0;stroke-width:9.72"/>
	<line x1="4801.78" y1="392.34" x2="4866.58" y2="392.34" style="stroke:#F0F0F0;stroke-width:9.72"/>
	<line x1="4898.98" y1="392.34" x2="4963.78" y2="392.34" style="stroke:#F0F0F0;stroke-width:9.72"/>
	<line x1="4996.18" y1="392.34" x2="5060.98" y2="392.34" style="stroke:#F0F0F0;stroke-width:9.72"/>
	<line x1="5093.38" y1="392.34" x2="5158.18" y2="392.34" style="stroke:#F0F0F0;stroke-width:9.72"/>
	<line x1="5190.58" y1="392.34" x2="5255.38" y2="392.34" style="stroke:#F0F0F0;stroke-width:9.72"/>
	<line x1="710.61" y1="2766.66" x2="710.61" y2="2701.86" style="stroke:#F0F0F0;stroke-width:9.72"/>
	<line x1="710.61" y1="2669.46" x2="710.61" y2="2604.66" style="stroke:#F0F0F0;stroke-width:9.72"/>
	<line x1="710.61" y1="2572.26" x2="710.61" y2="2507.46" style="stroke:#F0F0F0;stroke-width:9.72"/>
	<line x1="710.61" y1="2475.06" x2="710.61" y2="2410.26" style="stroke:#F0F0F0;stroke-width:9.72"/>
	<line x1="710.61" y1="2377.86" x2="710.61" y2="2313.06" style="stroke:#F0F0F0;stroke-width:9.72"/>
	<line x1="710.61" y1="2280.66" x2="710.61" y2="2215.86" style="stroke:#F0F0F0;stroke-width:9.72"/>
	<line x1="710.61" y1="2183.46" x2="710.61" y2="2118.66" style="stroke:#F0F0F0;stroke-width:9.72"/>
	<line x1="710.61" y1="2086.26" x2="710.61" y2="2021.46" style="stroke:#F0F0F0;stroke-width:9.72"/>
	<line x1="710.61" y1="1989.06" x2="710.61" y2="1924.26" style="stroke:#F0F0F0;stroke-width:9.72"/>
	<line x1="710.61" y1="1891.86" x2="710.61" y2="1827.06" style="stroke:#F0F0F0;stroke-width:9.72"/>
	<line x1="710.61" y1="1794.66" x2="710.61" y2="1729.86" style="stroke:#F0F0F0;stroke-width:9.72"/>
	<line x1="710.61" y1="1697.46" x2="710.61" y2="1632.66" style="stroke:#F0F0F0;stroke-width:9.72"/>
	<line x1="710.61" y1="1600.26" x2="710.61" y2="1535.46" style="stroke:#F0F0F0;stroke-width:9.72"/>
	<line x1="710.61" y1="1503.06" x2="710.61" y2="1438.26" style="stroke:#F0F0F0;stroke-width:9.72"/>
	<line x1="710.61" y1="1405.86" x2="710.61" y2="1341.06" style="stroke:#F0F0F0;stroke-width:9.72"/>
	<line x1="710.61" y1="1308.66" x2="710.61" y2="1243.86" style="stroke:#F0F0F0;stroke-width:9.72"/>
	<line x1="710.61" y1="1211.46" x2="710.61" y2="1146.66" style="stroke:#F0F0F0;stroke-width:9.72"/>
	<line x1="710.61" y1="1114.26" x2="710.61" y2="1049.46" style="stroke:#F0F0F0;stroke-width:9.72"/>
	<line x1="710.61" y1="1017.06" x2="710.61" y2="952.26" style="stroke:#F0F0F0;stroke-width:9.72"/>
	<line x1="710.61" y1="919.86" x2="710.61" y2="855.06" style="stroke:#F0F0F0;stroke-width:9.72"/>
	<line x1="710.61" y1="822.66" x2="710.61" y2="757.86" style="stroke:#F0F0F0;stroke-width:9.72"/>
	<line x1="710.61" y1="725.46" x2="710.61" y2="660.66" style="stroke:#F0F0F0;stroke-width:9.72"/>
	<line x1="710.61" y1="628.26" x2="710.61" y2="563.46" style="stroke:#F0F0F0;stroke-width:9.72"/>
	<line x1="710.61" y1="531.06" x2="710.61" y2="466.26" style="stroke:#F0F0F0;stroke-width:9.72"/>
	<line x1="710.61" y1="433.86" x2="710.61" y2="369.06" style="stroke:#F0F0F0;stroke-width:9.72"/>
	<line x1="710.61" y1="336.66" x2="710.61" y2="271.86" style="stroke:#F0F0F0;stroke-width:9.72"/>
	<line x1="710.61" y1="239.46" x2="710.61" y2="174.66" style="stroke:#F0F0F0;stroke-width:9.72"/>
	<line x1="710.61" y1="142.26" x2="710.61" y2="113.40" style="stroke:#F0F0F0;stroke-width:9.72"/>
	<line x1="1836.84" y1="2766.66" x2="1836.84" y2="2701.86" style="stroke:#F0F0F0;stroke-width:9.72"/>
	<line x1="1836.84" y1="2669.46" x2="1836.84" y2="2604.66" style="stroke:#F0F0F0;stroke-width:9.72"/>
	<line x1="1836.84" y1="2572.26" x2="1836.84" y2="2507.46" style="stroke:#F0F0F0;stroke-width:9.72"/>
	<line x1="1836.84" y1="2475.06" x2="1836.84" y2="2410.26" style="stroke:#F0F0F0;stroke-width:9.72"/>
	<line x1="1836.84" y1="2377.86" x2="1836.84" y2="2313.06" style="stroke:#F0F0F0;stroke-width:9.72"/>
	<line x1="1836.84" y1="2280.66" x2="1836.84" y2="2215.86" style="stroke:#F0F0F0;stroke-width:9.72"/>
	<line x1="1836.84" y1="2183.46" x2="1836.84" y2="2118.66" style="stroke:#F0F0F0;stroke-width:9.72"/>
	<line x1="1836.84" y1="2086.26" x2="1836.84" y2="2021.46" style="stroke:#F0F0F0;stroke-width:9.72"/>
	<line x1="1836.84" y1="1989.06" x2="1836.84" y2="1924.26" style="stroke:#F0F0F0;stroke-width:9.72"/>
	<line x1="1836.84" y1="1891.86" x2="1836.84" y2="1827.06" style="stroke:#F0F0F0;stroke-width:9.72"/>
	<line x1="1836.84" y1="1794.66" x2="1836.84" y2="1729.86" style="stroke:#F0F0F0;stroke-width:9.72"/>
	<line x1="1836.84" y1="1697.46" x2="1836.84" y2="1632.66" style="stroke:#F0F0F0;stroke-width:9.72"/>
	<line x1="1836.84" y1="1600.26" x2="1836.84" y2="1535.46" style="stroke:#F0F0F0;stroke-width:9.72"/>
	<line x1="1836.84" y1="1503.06" x2="1836.84" y2="1438.26" style="stroke:#F0F0F0;stroke-width:9.72"/>
	<line x1="1836.84" y1="1405.86" x2="1836.84" y2="1341.06" style="stroke:#F0F0F0;stroke-width:9.72"/>
	<line x1="1836.84" y1="1308.66" x2="1836.84" y2="1243.86" style="stroke:#F0F0F0;stroke-width:9.72"/>
	<line x1="1836.84" y1="1211.46" x2="1836.84" y2="1146.66" style="stroke:#F0F0F0;stroke-width:9.72"/>
	<line x1="1836.84" y1="1114.26" x2="1836.84" y2="1049.46" style="stroke:#F0F0F0;stroke-width:9.72"/>
	<line x1="1836.84" y1="1017.06" x2="1836.84" y2="952.26" style="stroke:#F0F0F0;stroke-width:9.72"/>
	<line x1="1836.84" y1="919.86" x2="1836.84" y2="855.06" style="stroke:#F0F0F0;stroke-width:9.72"/>
	<line x1="1836.84" y1="822.66" x2="1836.84" y2="757.86" style="stroke:#F0F0F0;stroke-width:9.72"/>
	<line x1="1836.84" y1="725.46" x2="1836.84" y2="660.66" style="stroke:#F0F0F0;stroke-width:9.72"/>
	<line x1="1836.84" y1="628.26" x2="1836.84" y2="563.46" style="stroke:#F0F0F0;stroke-width:9.72"/>
	<line x1="1836.84" y1="531.06" x2="1836.84" y2="466.26" style="stroke:#F0F0F0;stroke-width:9.72"/>
	<line x1="1836.84" y1="433.86" x2="1836.84" y2="369.06" style="stroke:#F0F0F0;stroke-width:9.72"/>
	<line x1="1836.84" y1="336.66" x2="1836.84" y2="271.86" style="stroke:#F0F0F0;stroke-width:9.72"/>
	<line x1="1836.84" y1="239.46" x2="1836.84" y2="174.66" style="stroke:#F0F0F0;stroke-width:9.72"/>
	<line x1="1836.84" y1="142.26" x2="1836.84" y2="113.40" style="stroke:#F0F0F0;stroke-width:9.72"/>
	<line x1="2962.91" y1="2766.66" x2="2962.91" y2="2701.86" style="stroke:#F0F0F0;stroke-width:9.72"/>
	<line x1="2962.91" y1="2669.46" x2="2962.91" y2="2604.66" style="stroke:#F0F0F0;stroke-width:9.72"/>
	<line x1="2962.91" y1="2572.26" x2="2962.91" y2="2507.46" style="stroke:#F0F0F0;stroke-width:9.72"/>
	<line x1="2962.91" y1="2475.06" x2="2962.91" y2="2410.26" style="stroke:#F0F0F0;stroke-width:9.72"/>
	<line x1="2962.91" y1="2377.86" x2="2962.91" y2="2313.06" style="stroke:#F0F0F0;stroke-width:9.72"/>
	<line x1="2962.91" y1="2280.66" x2="2962.91" y2="2215.86" style="stroke:#F0F0F0;stroke-width:9.72"/>
	<line x1="2962.91" y1="2183.46" x2="2962.91" y2="2118.66" style="stroke:#F0F0F0;stroke-width:9.72"/>
	<line x1="2962.91" y1="2086.26" x2="2962.91" y2="2021.46" style="stroke:#F0F0F0;stroke-width:9.72"/>
	<line x1="2962.91" y1="1989.06" x2="2962.91" y2="1924.26" style="stroke:#F0F0F0;stroke-width:9.72"/>
	<line x1="2962.91" y1="1891.86" x2="2962.91" y2="1827.06" style="stroke:#F0F0F0;stroke-width:9.72"/>
	<line x1="2962.91" y1="1794.66" x2="2962.91" y2="1729.86" style="stroke:#F0F0F0;stroke-width:9.72"/>
	<line x1="2962.91" y1="1697.46" x2="2962.91" y2="1632.66" style="stroke:#F0F0F0;stroke-width:9.72"/>
	<line x1="2962.91" y1="1600.26" x2="2962.91" y2="1535.46" style="stroke:#F0F0F0;stroke-width:9.72"/>
	<line x1="2962.91" y1="1503.06" x2="2962.91" y2="1438.26" style="stroke:#F0F0F0;stroke-width:9.72"/>
	<line x1="2962.91" y1="1405.86" x2="2962.91" y2="1341.06" style="stroke:#F0F0F0;stroke-width:9.72"/>
	<line x1="2962.91" y1="1308.66" x2="2962.91" y2="1243.86" style="stroke:#F0F0F0;stroke-width:9.72"/>
	<line x1="2962.91" y1="1211.46" x2="2962.91" y2="1146.66" style="stroke:#F0F0F0;stroke-width:9.72"/>
	<line x1="2962.91" y1="1114.26" x2="2962.91" y2="1049.46" style="stroke:#F0F0F0;stroke-width:9.72"/>
	<line x1="2962.91" y1="1017.06" x2="2962.91" y2="952.26" style="stroke:#F0F0F0;stroke-width:9.72"/>
	<line x1="2962.91" y1="919.86" x2="2962.91" y2="855.06" style="stroke:#F0F0F0;stroke-width:9.72"/>
	<line x1="2962.91" y1="822.66" x2="2962.91" y2="757.86" style="stroke:#F0F0F0;stroke-width:9.72"/>
	<line x1="2962.91" y1="725.46" x2="2962.91" y2="660.66" style="stroke:#F0F0F0;stroke-width:9.72"/>
	<line x1="2962.91" y1="628.26" x2="2962.91" y2="563.46" style="stroke:#F0F0F0;stroke-width:9.72"/>
	<line x1="2962.91" y1="531.06" x2="2962.91" y2="466.26" style="stroke:#F0F0F0;stroke-width:9.72"/>
	<line x1="2962.91" y1="433.86" x2="2962.91" y2="369.06" style="stroke:#F0F0F0;stroke-width:9.72"/>
	<line x1="2962.91" y1="336.66" x2="2962.91" y2="271.86" style="stroke:#F0F0F0;stroke-width:9.72"/>
	<line x1="2962.91" y1="239.46" x2="2962.91" y2="174.66" style="stroke:#F0F0F0;stroke-width:9.72"/>
	<line x1="2962.91" y1="142.26" x2="2962.91" y2="113.40" style="stroke:#F0F0F0;stroke-width:9.72"/>
	<line x1="4089.15" y1="2766.66" x2="4089.15" y2="2701.86" style="stroke:#F0F0F0;stroke-width:9.72"/>
	<line x1="4089.15" y1="2669.46" x2="4089.15" y2="2604.66" style="stroke:#F0F0F0;stroke-width:9.72"/>
	<line x1="4089.15" y1="2572.26" x2="4089.15" y2="2507.46" style="stroke:#F0F0F0;stroke-width:9.72"/>
	<line x1="4089.15" y1="2475.06" x2="4089.15" y2="2410.26" style="stroke:#F0F0F0;stroke-width:9.72"/>
	<line x1="4089.15" y1="2377.86" x2="4089.15" y2="2313.06" style="stroke:#F0F0F0;stroke-width:9.72"/>
	<line x1="4089.15" y1="2280.66" x2="4089.15" y2="2215.86" style="stroke:#F0F0F0;stroke-width:9.72"/>
	<line x1="4089.15" y1="2183.46" x2="4089.15" y2="2118.66" style="stroke:#F0F0F0;stroke-width:9.72"/>
	<line x1="4089.15" y1="2086.26" x2="4089.15" y2="2021.46" style="stroke:#F0F0F0;stroke-width:9.72"/>
	<line x1="4089.15" y1="1989.06" x2="4089.15" y2="1924.26" style="stroke:#F0F0F0;stroke-width:9.72"/>
	<line x1="4089.15" y1="1891.86" x2="4089.15" y2="1827.06" style="stroke:#F0F0F0;stroke-width:9.72"/>
	<line x1="4089.15" y1="1794.66" x2="4089.15" y2="1729.86" style="stroke:#F0F0F0;stroke-width:9.72"/>
	<line x1="4089.15" y1="1697.46" x2="4089.15" y2="1632.66" style="stroke:#F0F0F0;stroke-width:9.72"/>
	<line x1="4089.15" y1="1600.26" x2="4089.15" y2="1535.46" style="stroke:#F0F0F0;stroke-width:9.72"/>
	<line x1="4089.15" y1="1503.06" x2="4089.15" y2="1438.26" style="stroke:#F0F0F0;stroke-width:9.72"/>
	<line x1="4089.15" y1="1405.86" x2="4089.15" y2="1341.06" style="stroke:#F0F0F0;stroke-width:9.72"/>
	<line x1="4089.15" y1="1308.66" x2="4089.15" y2="1243.86" style="stroke:#F0F0F0;stroke-width:9.72"/>
	<line x1="4089.15" y1="1211.46" x2="4089.15" y2="1146.66" style="stroke:#F0F0F0;stroke-width:9.72"/>
	<line x1="4089.15" y1="1114.26" x2="4089.15" y2="1049.46" style="stroke:#F0F0F0;stroke-width:9.72"/>
	<line x1="4089.15" y1="1017.06" x2="4089.15" y2="952.26" style="stroke:#F0F0F0;stroke-width:9.72"/>
	<line x1="4089.15" y1="919.86" x2="4089.15" y2="855.06" style="stroke:#F0F0F0;stroke-width:9.72"/>
	<line x1="4089.15" y1="822.66" x2="4089.15" y2="757.86" style="stroke:#F0F0F0;stroke-width:9.72"/>
	<line x1="4089.15" y1="725.46" x2="4089.15" y2="660.66" style="stroke:#F0F0F0;stroke-width:9.72"/>
	<line x1="4089.15" y1="628.26" x2="4089.15" y2="563.46" style="stroke:#F0F0F0;stroke-width:9.72"/>
	<line x1="4089.15" y1="531.06" x2="4089.15" y2="466.26" style="stroke:#F0F0F0;stroke-width:9.72"/>
	<line x1="4089.15" y1="433.86" x2="4089.15" y2="369.06" style="stroke:#F0F0F0;stroke-width:9.72"/>
	<line x1="4089.15" y1="336.66" x2="4089.15" y2="271.86" style="stroke:#F0F0F0;stroke-width:9.72"/>
	<line x1="4089.15" y1="239.46" x2="4089.15" y2="174.66" style="stroke:#F0F0F0;stroke-width:9.72"/>
	<line x1="4089.15" y1="142.26" x2="4089.15" y2="113.40" style="stroke:#F0F0F0;stroke-width:9.72"/>
	<line x1="5215.39" y1="2766.66" x2="5215.39" y2="2701.86" style="stroke:#F0F0F0;stroke-width:9.72"/>
	<line x1="5215.39" y1="2669.46" x2="5215.39" y2="2604.66" style="stroke:#F0F0F0;stroke-width:9.72"/>
	<line x1="5215.39" y1="2572.26" x2="5215.39" y2="2507.46" style="stroke:#F0F0F0;stroke-width:9.72"/>
	<line x1="5215.39" y1="2475.06" x2="5215.39" y2="2410.26" style="stroke:#F0F0F0;stroke-width:9.72"/>
	<line x1="5215.39" y1="2377.86" x2="5215.39" y2="2313.06" style="stroke:#F0F0F0;stroke-width:9.72"/>
	<line x1="5215.39" y1="2280.66" x2="5215.39" y2="2215.86" style="stroke:#F0F0F0;stroke-width:9.72"/>
	<line x1="5215.39" y1="2183.46" x2="5215.39" y2="2118.66" style="stroke:#F0F0F0;stroke-width:9.72"/>
	<line x1="5215.39" y1="2086.26" x2="5215.39" y2="2021.46" style="stroke:#F0F0F0;stroke-width:9.72"/>
	<line x1="5215.39" y1="1989.06" x2="5215.39" y2="1924.26" style="stroke:#F0F0F0;stroke-width:9.72"/>
	<line x1="5215.39" y1="1891.86" x2="5215.39" y2="1827.06" style="stroke:#F0F0F0;stroke-width:9.72"/>
	<line x1="5215.39" y1="1794.66" x2="5215.39" y2="1729.86" style="stroke:#F0F0F0;stroke-width:9.72"/>
	<line x1="5215.39" y1="1697.46" x2="5215.39" y2="1632.66" style="stroke:#F0F0F0;stroke-width:9.72"/>
	<line x1="5215.39" y1="1600.26" x2="5215.39" y2="1535.46" style="stroke:#F0F0F0;stroke-width:9.72"/>
	<line x1="5215.39" y1="1503.06" x2="5215.39" y2="1438.26" style="stroke:#F0F0F0;stroke-width:9.72"/>
	<line x1="5215.39" y1="1405.86" x2="5215.39" y2="1341.06" style="stroke:#F0F0F0;stroke-width:9.72"/>
	<line x1="5215.39" y1="1308.66" x2="5215.39" y2="1243.86" style="stroke:#F0F0F0;stroke-width:9.72"/>
	<line x1="5215.39" y1="1211.46" x2="5215.39" y2="1146.66" style="stroke:#F0F0F0;stroke-width:9.72"/>
	<line x1="5215.39" y1="1114.26" x2="5215.39" y2="1049.46" style="stroke:#F0F0F0;stroke-width:9.72"/>
	<line x1="5215.39" y1="1017.06" x2="5215.39" y2="952.26" style="stroke:#F0F0F0;stroke-width:9.72"/>
	<line x1="5215.39" y1="919.86" x2="5215.39" y2="855.06" style="stroke:#F0F0F0;stroke-width:9.72"/>
	<line x1="5215.39" y1="822.66" x2="5215.39" y2="757.86" style="stroke:#F0F0F0;stroke-width:9.72"/>
	<line x1="5215.39" y1="725.46" x2="5215.39" y2="660.66" style="stroke:#F0F0F0;stroke-width:9.72"/>
	<line x1="5215.39" y1="628.26" x2="5215.39" y2="563.46" style="stroke:#F0F0F0;stroke-width:9.72"/>
	<line x1="5215.39" y1="531.06" x2="5215.39" y2="466.26" style="stroke:#F0F0F0;stroke-width:9.72"/>
	<line x1="5215.39" y1="433.86" x2="5215.39" y2="369.06" style="stroke:#F0F0F0;stroke-width:9.72"/>
	<line x1="5215.39" y1="336.66" x2="5215.39" y2="271.86" style="stroke:#F0F0F0;stroke-width:9.72"/>
	<line x1="5215.39" y1="239.46" x2="5215.39" y2="174.66" style="stroke:#F0F0F0;stroke-width:9.72"/>
	<line x1="5215.39" y1="142.26" x2="5215.39" y2="113.40" style="stroke:#F0F0F0;stroke-width:9.72"/>
	<rect x="711.45" y="2054.36" width="230.34" height="712.29" style="fill:#3191FF"/>
	<rect x="713.88" y="2056.79" width="225.48" height="707.43" style="fill:none;stroke:#5FAAFF;stroke-width:4.86"/>
	<rect x="941.79" y="1045.41" width="230.51" height="1721.25" style="fill:#3191FF"/>
	<rect x="944.22" y="1047.84" width="225.65" height="1716.39" style="fill:none;stroke:#5FAAFF;stroke-width:4.86"/>
	<rect x="1172.31" y="184.61" width="230.34" height="2582.04" style="fill:#3191FF"/>
	<rect x="1174.74" y="187.04" width="225.48" height="2577.18" style="fill:none;stroke:#5FAAFF;stroke-width:4.86"/>
	<rect x="1402.65" y="956.31" width="230.51" height="1810.35" style="fill:#3191FF"/>
	<rect x="1405.08" y="958.74" width="225.65" height="1805.49" style="fill:none;stroke:#5FAAFF;stroke-width:4.86"/>
	<rect x="1633.16" y="1876.33" width="230.34" height="890.33" style="fill:#3191FF"/>
	<rect x="1635.59" y="1878.76" width="225.48" height="885.47" style="fill:none;stroke:#5FAAFF;stroke-width:4.86"/>
	<rect x="1863.51" y="2113.76" width="230.51" height="652.89" style="fill:#3191FF"/>
	<rect x="1865.94" y="2116.19" width="225.65" height="648.03" style="fill:none;stroke:#5FAAFF;stroke-width:4.86"/>
	<rect x="2094.02" y="2440.13" width="230.34" height="326.53" style="fill:#3191FF"/>
	<rect x="2096.45" y="2442.55" width="225.48" height="321.67" style="fill:none;stroke:#5FAAFF;stroke-width:4.86"/>
	<rect x="2324.36" y="2469.82" width="230.51" height="296.83" style="fill:#3191FF"/>
	<rect x="2326.79" y="2472.25" width="225.65" height="291.97" style="fill:none;stroke:#5FAAFF;stroke-width:4.86"/>
	<rect x="2554.88" y="2707.26" width="230.34" height="59.40" style="fill:#3191FF"/>
	<rect x="2557.30" y="2709.69" width="225.48" height="54.54" style="fill:none;stroke:#5FAAFF;stroke-width:4.86"/>
	<rect x="2785.22" y="2707.26" width="230.51" height="59.40" style="fill:#3191FF"/>
	<rect x="2787.65" y="2709.69" width="225.65" height="54.54" style="fill:none;stroke:#5FAAFF;stroke-width:4.86"/>
	<rect x="4398.30" y="2736.96" width="230.34" height="29.70" style="fill:#3191FF"/>
	<rect x="4400.73" y="2739.39" width="225.48" height="24.84" style="fill:none;stroke:#5FAAFF;stroke-width:4.86"/>
	<line x1="524.98" y1="2766.66" x2="524.98" y2="113.40" style="stroke:#000000;stroke-width:6.48"/>
	<line x1="524.98" y1="2766.66" x2="479.93" y2="2766.66" style="stroke:#000000;stroke-width:6.48"/>
	<text x="457.48" y="2806.09" style="font-family:'Helvetica';font-size:112.56px;fill:#000000" text-anchor="end">0</text>
	<line x1="524.98" y1="2172.99" x2="479.93" y2="2172.99" style="stroke:#000000;stroke-width:6.48"/>
	<text x="457.48" y="2212.43" style="font-family:'Helvetica';font-size:112.56px;fill:#000000" text-anchor="end">20</text>
	<line x1="524.98" y1="1579.50" x2="479.93" y2="1579.50" style="stroke:#000000;stroke-width:6.48"/>
	<text x="457.48" y="1618.94" style="font-family:'Helvetica';font-size:112.56px;fill:#000000" text-anchor="end">40</text>
	<line x1="524.98" y1="986.01" x2="479.93" y2="986.01" style="stroke:#000000;stroke-width:6.48"/>
	<text x="457.48" y="1025.44" style="font-family:'Helvetica';font-size:112.56px;fill:#000000" text-anchor="end">60</text>
	<line x1="524.98" y1="392.34" x2="479.93" y2="392.34" style="stroke:#000000;stroke-width:6.48"/>
	<text x="457.48" y="431.78" style="font-family:'Helvetica';font-size:112.56px;fill:#000000" text-anchor="end">80</text>
	<text x="214.55" y="1439.94" style="font-family:'Helvetica';font-size:112.56px;fill:#000000" transform="rotate(-90 214.55,1439.94)" text-anchor="middle">Frequency</text>
	<line x1="524.98" y1="2766.66" x2="5286.60" y2="2766.66" style="stroke:#000000;stroke-width:6.48"/>
	<line x1="710.61" y1="2766.66" x2="710.61" y2="2811.54" style="stroke:#000000;stroke-width:6.48"/>
	<text x="710.61" y="2912.86" style="font-family:'Helvetica';font-size:112.56px;fill:#000000" text-anchor="middle">0</text>
	<line x1="1836.84" y1="2766.66" x2="1836.84" y2="2811.54" style="stroke:#000000;stroke-width:6.48"/>
	<text x="1836.84" y="2912.86" style="font-family:'Helvetica';font-size:112.56px;fill:#000000" text-anchor="middle">10000</text>
	<line x1="2962.91" y1="2766.66" x2="2962.91" y2="2811.54" style="stroke:#000000;stroke-width:6.48"/>
	<text x="2962.91" y="2912.86" style="font-family:'Helvetica';font-size:112.56px;fill:#000000" text-anchor="middle">20000</text>
	<line x1="4089.15" y1="2766.66" x2="4089.15" y2="2811.54" style="stroke:#000000;stroke-width:6.48"/>
	<text x="4089.15" y="2912.86" style="font-family:'Helvetica';font-size:112.56px;fill:#000000" text-anchor="middle">30000</text>
	<line x1="5215.39" y1="2766.66" x2="5215.39" y2="2811.54" style="stroke:#000000;stroke-width:6.48"/>
	<text x="5215.39" y="2912.86" style="font-family:'Helvetica';font-size:112.56px;fill:#000000" text-anchor="middle">40000</text>
	<text x="2905.71" y="3070.31" style="font-family:'Helvetica';font-size:112.56px;fill:#000000" text-anchor="middle">Pedometer 1 Day 1 Steps</text>
</svg>
